<svg width="1806" height="851" viewBox="0 0 1806 851" fill="none" xmlns="http://www.w3.org/2000/svg">
<g opacity="0.02">
<path opacity="0.02" d="M1774.49 134.356L1805.96 147.081V146.954L1774.56 134.28C1774.52 134.28 1774.49 134.28 1774.49 134.28C1774.49 134.28 1774.49 134.28 1774.45 134.306C1774.45 134.306 1774.45 134.331 1774.49 134.356Z" fill="#85F5FF"/>
</g>
<g opacity="0.02">
<path opacity="0.02" d="M1773.81 330.557L1805.99 316.486V316.359L1773.73 330.481C1773.7 330.506 1773.7 330.532 1773.7 330.557C1773.7 330.557 1773.77 330.582 1773.81 330.557Z" fill="#85F5FF"/>
</g>
<g opacity="0.12">
<path opacity="0.12" d="M1773.41 330.15C1773.52 330.1 1773.63 330.074 1773.73 330.074C1774.06 330.074 1774.38 330.252 1774.38 330.481L1782.34 469.256C1782.34 469.51 1782.09 469.713 1781.76 469.713C1781.44 469.713 1781.12 469.535 1781.12 469.307L1773.16 330.531C1773.13 330.379 1773.23 330.252 1773.41 330.15Z" fill="#85F5FF"/>
</g>
<g opacity="0.03">
<path opacity="0.03" d="M1781.62 469.206C1781.69 469.18 1781.76 469.18 1781.83 469.231C1781.91 469.282 1781.91 469.358 1781.83 469.409L1621.91 579.713C1621.84 579.764 1621.73 579.764 1621.66 579.713C1621.59 579.662 1621.59 579.586 1621.66 579.535L1781.62 469.206Z" fill="#85F5FF"/>
</g>
<g opacity="0.28">
<path opacity="0.28" d="M1780.9 468.444C1781.08 468.367 1781.26 468.291 1781.48 468.266C1782.26 468.164 1783.02 468.52 1783.16 469.079L1805.42 553.934C1805.56 554.493 1805.06 555.026 1804.27 555.128C1803.48 555.229 1802.73 554.874 1802.59 554.315L1780.33 469.46C1780.19 469.079 1780.44 468.672 1780.9 468.444Z" fill="#85F5FF"/>
</g>
<g opacity="0.18">
<path opacity="0.18" d="M1621.23 579.027C1621.34 578.976 1621.45 578.925 1621.59 578.925L1803.81 553.502C1804.34 553.426 1804.84 553.68 1804.95 554.035C1805.06 554.416 1804.7 554.772 1804.2 554.848L1621.98 580.272C1621.45 580.348 1620.94 580.094 1620.84 579.738C1620.77 579.459 1620.91 579.179 1621.23 579.027Z" fill="#85F5FF"/>
</g>
<g opacity="0.04">
<path opacity="0.04" d="M1382.75 0L1424.18 100.043C1424.21 100.12 1424.32 100.145 1424.43 100.145C1424.54 100.12 1424.57 100.043 1424.57 99.9671L1383.14 0H1382.75Z" fill="#85F5FF"/>
</g>
<g opacity="0.03">
<path opacity="0.03" d="M1424.32 99.9162C1424.32 99.9162 1424.36 99.9162 1424.36 99.8908L1543.31 77.5404C1543.38 77.515 1543.46 77.5658 1543.49 77.6166C1543.53 77.6674 1543.46 77.7182 1543.38 77.7436L1424.43 100.094C1424.36 100.119 1424.29 100.069 1424.25 100.018C1424.25 99.9924 1424.25 99.9416 1424.32 99.9162Z" fill="#85F5FF"/>
</g>
<g opacity="0.19">
<path opacity="0.19" d="M1423.82 99.4338C1423.89 99.383 1424 99.3576 1424.07 99.3322C1424.61 99.2052 1425.15 99.4084 1425.32 99.7894L1472.28 201.153C1472.46 201.534 1472.17 201.915 1471.63 202.042C1471.09 202.169 1470.56 201.966 1470.38 201.585L1423.43 100.221C1423.32 99.9164 1423.46 99.6116 1423.82 99.4338Z" fill="#85F5FF"/>
</g>
<g opacity="0.28">
<path opacity="0.28" d="M1470.48 200.493C1471.17 200.163 1472.1 200.265 1472.6 200.747L1517.36 245.626C1517.83 246.108 1517.69 246.769 1517.01 247.124C1516.32 247.454 1515.39 247.353 1514.89 246.87L1470.13 201.992C1469.62 201.509 1469.77 200.849 1470.48 200.493C1470.48 200.493 1470.45 200.493 1470.48 200.493Z" fill="#85F5FF"/>
</g>
<g opacity="0.09">
<path opacity="0.09" d="M865.883 52.8028C866.098 52.7012 866.385 52.7012 866.6 52.8028C866.887 52.9297 866.959 53.2345 866.779 53.4377L831.799 90.2904C831.583 90.4936 831.189 90.5444 830.902 90.4174C830.616 90.2904 830.544 89.9856 830.723 89.7825L865.704 52.9297C865.74 52.8789 865.812 52.8282 865.883 52.8028Z" fill="#85F5FF"/>
</g>
<g opacity="0.03">
<path opacity="0.03" d="M866.098 53.0568C866.134 53.0568 866.134 53.0314 866.17 53.0314L937.278 40.1546C937.386 40.1292 937.494 40.18 937.529 40.2561C937.565 40.3323 937.493 40.4085 937.386 40.4339L866.278 53.3108C866.17 53.3362 866.063 53.2854 866.027 53.2092C865.991 53.133 866.063 53.0822 866.098 53.0568Z" fill="#85F5FF"/>
</g>
<g opacity="0.03">
<path opacity="0.03" d="M771.837 37.2085C771.872 37.1831 771.908 37.1831 771.944 37.1831L937.35 40.1547C937.458 40.1547 937.529 40.2055 937.529 40.2817C937.529 40.3579 937.458 40.4087 937.35 40.4087L771.944 37.4371C771.837 37.4371 771.765 37.3863 771.765 37.3101C771.765 37.2847 771.801 37.2339 771.837 37.2085Z" fill="#85F5FF"/>
</g>
<g opacity="0.18">
<path opacity="0.18" d="M830.58 89.3508C830.58 89.3508 830.616 89.3508 830.58 89.3508L936.705 39.5958C937.243 39.3418 937.924 39.4434 938.282 39.8244C938.605 40.18 938.497 40.6879 937.995 40.9165H937.959L831.87 90.6461C831.333 90.9001 830.652 90.7985 830.293 90.4175C829.971 90.0873 830.078 89.6048 830.58 89.3508Z" fill="#85F5FF"/>
</g>
<g opacity="0.14">
<path opacity="0.14" d="M936.813 39.7483C937.135 39.5959 937.601 39.5959 937.924 39.7991L1027.63 95.0146C1027.99 95.2432 1028.06 95.6496 1027.71 95.9036C1027.38 96.183 1026.81 96.2084 1026.45 95.9544L936.741 40.7388C936.382 40.5102 936.311 40.1038 936.669 39.8499C936.705 39.8245 936.777 39.7991 936.813 39.7483Z" fill="#85F5FF"/>
</g>
<g opacity="0.01">
<path opacity="0.01" d="M1026.99 95.421C1027.02 95.3956 1027.1 95.3956 1027.13 95.4464C1027.17 95.4718 1027.17 95.5226 1027.1 95.548L865.023 177.914C864.987 177.94 864.916 177.94 864.88 177.889C864.844 177.863 864.844 177.813 864.916 177.787L1026.99 95.421Z" fill="#85F5FF"/>
</g>
<g opacity="0.19">
<path opacity="0.19" d="M1026.34 94.7858C1026.85 94.5318 1027.56 94.608 1027.99 94.9636L1110.86 168.771C1111.29 169.152 1111.18 169.685 1110.68 169.964C1110.21 170.269 1109.39 170.193 1108.99 169.837L1026.13 96.0303C1025.7 95.6493 1025.81 95.116 1026.31 94.8366C1026.31 94.8112 1026.34 94.7858 1026.34 94.7858Z" fill="#85F5FF"/>
</g>
<g opacity="0.02">
<path opacity="0.02" d="M1109.85 169.228C1109.89 169.203 1109.92 169.203 1110 169.228L1246.94 227.263C1247.02 227.288 1247.02 227.339 1246.98 227.364C1246.94 227.415 1246.87 227.415 1246.84 227.39L1109.89 169.355C1109.82 169.33 1109.82 169.279 1109.85 169.253C1109.82 169.228 1109.82 169.228 1109.85 169.228Z" fill="#85F5FF"/>
</g>
<g opacity="0.29">
<path opacity="0.29" d="M1181.64 221.421C1181.96 221.243 1182.39 221.167 1182.86 221.192L1247.05 226.069C1248.02 226.145 1248.74 226.754 1248.63 227.44C1248.52 228.126 1247.66 228.634 1246.69 228.558L1182.5 223.681C1181.53 223.605 1180.82 222.996 1180.93 222.31C1180.96 221.954 1181.25 221.624 1181.64 221.421Z" fill="#85F5FF"/>
</g>
<g opacity="0.04">
<path opacity="0.04" d="M851.834 405.939C851.905 405.913 851.977 405.888 852.049 405.913C852.228 405.939 852.335 406.04 852.335 406.167L841.44 473.726C841.404 473.853 841.261 473.93 841.081 473.93C840.902 473.904 840.795 473.803 840.795 473.676L851.69 406.117C851.69 406.04 851.762 405.964 851.834 405.939Z" fill="#85F5FF"/>
</g>
<g opacity="0.01">
<path opacity="0.01" d="M721.372 383.055H721.408L852.013 406.091C852.049 406.091 852.049 406.116 852.049 406.142C852.049 406.167 852.013 406.167 851.977 406.167L721.372 383.131C721.337 383.105 721.337 383.08 721.372 383.055C721.337 383.055 721.337 383.055 721.372 383.055Z" fill="#85F5FF"/>
</g>
<g opacity="0.14">
<path opacity="0.14" d="M748.898 385.036C749.149 384.909 749.436 384.858 749.758 384.934L852.264 405.431C852.801 405.532 853.124 405.938 852.98 406.319C852.837 406.7 852.264 406.929 851.726 406.827L749.221 386.331C748.683 386.23 748.361 385.823 748.504 385.442C748.576 385.264 748.719 385.112 748.898 385.036Z" fill="#85F5FF"/>
</g>
<g opacity="0.02">
<path opacity="0.02" d="M851.905 406.015C851.941 405.989 852.013 405.989 852.084 406.015L945.343 439.972C945.414 439.997 945.45 440.074 945.414 440.124C945.379 440.175 945.271 440.201 945.199 440.175L851.941 406.218C851.869 406.192 851.834 406.116 851.869 406.065C851.869 406.04 851.869 406.04 851.905 406.015Z" fill="#85F5FF"/>
</g>
<g opacity="0.19">
<path opacity="0.19" d="M851.188 405.304C851.404 405.202 851.654 405.126 851.905 405.126L888.929 403.78C889.682 403.755 890.363 404.161 890.398 404.72C890.434 405.278 889.861 405.736 889.072 405.761L852.049 407.107C851.296 407.132 850.615 406.726 850.579 406.167C850.579 405.812 850.83 405.507 851.188 405.304Z" fill="#85F5FF"/>
</g>
<g opacity="0.02">
<path opacity="0.02" d="M721.301 383.004C721.337 382.979 721.373 382.979 721.408 382.979L889.072 404.669C889.144 404.669 889.216 404.719 889.18 404.796C889.18 404.846 889.108 404.897 889.001 404.872L721.337 383.182C721.265 383.182 721.193 383.131 721.229 383.055C721.265 383.029 721.265 383.004 721.301 383.004Z" fill="#85F5FF"/>
</g>
<g opacity="0.24">
<path opacity="0.24" d="M888.069 403.805C888.678 403.5 889.538 403.526 890.148 403.881L946.346 439.185C947.027 439.617 947.099 440.379 946.49 440.861C945.88 441.344 944.805 441.394 944.124 440.963L887.925 405.659C887.245 405.228 887.173 404.466 887.782 403.983C887.89 403.907 887.961 403.856 888.069 403.805Z" fill="#85F5FF"/>
</g>
<g opacity="0.04">
<path opacity="0.04" d="M888.893 404.618C889.001 404.567 889.144 404.567 889.252 404.618L1015.81 476.546C1015.91 476.622 1015.95 476.749 1015.84 476.825C1015.77 476.927 1015.56 476.927 1015.45 476.85L888.893 404.923C888.786 404.847 888.75 404.72 888.857 404.644C888.822 404.644 888.857 404.618 888.893 404.618Z" fill="#85F5FF"/>
</g>
<g opacity="0.03">
<path opacity="0.03" d="M945.128 439.972C945.163 439.947 945.235 439.947 945.307 439.947L1092.9 476.952C1093.01 476.977 1093.04 477.054 1093.01 477.13C1092.97 477.206 1092.86 477.231 1092.76 477.206L945.163 440.201C945.056 440.175 945.02 440.099 945.056 440.023C945.092 439.998 945.092 439.972 945.128 439.972Z" fill="#85F5FF"/>
</g>
<g opacity="0.25">
<path opacity="0.25" d="M944.267 439.083C944.841 438.779 945.665 438.779 946.275 439.109L1016.63 475.733C1017.38 476.139 1017.56 476.901 1016.99 477.435C1016.42 477.993 1015.34 478.095 1014.59 477.689L944.232 441.064C943.479 440.658 943.3 439.896 943.873 439.363C943.981 439.236 944.088 439.16 944.267 439.083Z" fill="#85F5FF"/>
</g>
<g opacity="0.02">
<path opacity="0.02" d="M1015.52 476.622C1015.56 476.596 1015.59 476.596 1015.63 476.596L1164.22 502.02C1164.3 502.045 1164.33 502.096 1164.33 502.147C1164.3 502.198 1164.22 502.223 1164.15 502.223L1015.56 476.799C1015.48 476.774 1015.45 476.723 1015.45 476.672C1015.48 476.647 1015.48 476.622 1015.52 476.622Z" fill="#85F5FF"/>
</g>
<g opacity="0.22">
<path opacity="0.22" d="M1014.77 475.835C1015.02 475.708 1015.3 475.657 1015.63 475.657L1092.86 476.038C1093.69 476.038 1094.33 476.52 1094.33 477.079C1094.33 477.663 1093.65 478.12 1092.86 478.12L1015.63 477.739C1014.8 477.739 1014.16 477.257 1014.16 476.698C1014.12 476.342 1014.37 476.038 1014.77 475.835Z" fill="#85F5FF"/>
</g>
<g opacity="0.01">
<path opacity="0.01" d="M1092.79 477.054H1092.83L1164.22 502.096C1164.26 502.096 1164.26 502.122 1164.26 502.147C1164.26 502.173 1164.22 502.173 1164.19 502.173L1092.79 477.13C1092.79 477.105 1092.76 477.079 1092.79 477.054Z" fill="#85F5FF"/>
</g>
<g opacity="0.12">
<path opacity="0.12" d="M683.094 629.392C683.274 629.29 683.489 629.265 683.739 629.29C684.241 629.341 684.564 629.671 684.492 630.001L674.134 681.128C674.062 681.483 673.596 681.712 673.131 681.661C672.629 681.61 672.306 681.28 672.378 680.95L682.736 629.823C682.736 629.62 682.879 629.468 683.094 629.392Z" fill="#85F5FF"/>
</g>
<g opacity="0.22">
<path opacity="0.22" d="M682.7 628.985C683.166 628.757 683.811 628.706 684.349 628.909L702.126 635.69C702.879 635.97 703.165 636.656 702.771 637.189C702.377 637.722 701.409 637.925 700.656 637.646L682.879 630.865C682.127 630.585 681.84 629.9 682.234 629.366C682.342 629.214 682.521 629.087 682.7 628.985Z" fill="#85F5FF"/>
</g>
<g opacity="0.01">
<path opacity="0.01" d="M683.56 629.849C683.596 629.824 683.668 629.849 683.704 629.874L735.673 690.017C735.709 690.042 735.673 690.093 735.637 690.119C735.601 690.144 735.53 690.119 735.494 690.093L683.524 629.95C683.489 629.9 683.524 629.874 683.56 629.849Z" fill="#85F5FF"/>
</g>
<g opacity="0.21">
<path opacity="0.21" d="M700.513 635.817C700.585 635.792 700.656 635.741 700.764 635.716C701.517 635.487 702.377 635.716 702.699 636.224L736.892 689.585C737.214 690.119 736.892 690.728 736.175 690.957C735.422 691.185 734.562 690.957 734.239 690.449L700.047 637.087C699.725 636.655 699.94 636.122 700.513 635.817Z" fill="#85F5FF"/>
</g>
<g opacity="0.17">
<path opacity="0.17" d="M734.92 689.382C734.956 689.356 734.992 689.356 735.028 689.331C735.566 689.102 736.282 689.255 736.569 689.636L798.646 768.421C798.968 768.802 798.753 769.284 798.216 769.513C797.678 769.742 796.961 769.589 796.674 769.208L734.598 690.423C734.311 690.068 734.454 689.61 734.92 689.382Z" fill="#85F5FF"/>
</g>
<g opacity="0.01">
<path opacity="0.01" d="M797.606 768.751L941.364 705.942C941.4 705.916 941.472 705.942 941.508 705.967C941.544 705.992 941.508 706.043 941.472 706.069L797.714 768.878C797.678 768.904 797.606 768.878 797.57 768.853C797.57 768.827 797.57 768.777 797.606 768.751Z" fill="#85F5FF"/>
</g>
<g opacity="0.14">
<path opacity="0.14" d="M797.14 768.294C797.499 768.116 797.965 768.142 798.287 768.345L902.405 838.495C902.764 838.749 902.763 839.13 902.441 839.384C902.083 839.638 901.545 839.663 901.187 839.409L797.069 769.259C796.71 769.005 796.71 768.624 797.033 768.37C797.069 768.345 797.104 768.32 797.14 768.294Z" fill="#85F5FF"/>
</g>
<g opacity="0.13">
<path opacity="0.13" d="M470.558 595.155C470.952 594.952 471.525 594.977 471.884 595.206L483.675 602.825C484.105 603.104 484.141 603.587 483.747 603.892C483.353 604.197 482.672 604.222 482.242 603.943L470.45 596.323C470.02 596.044 469.984 595.561 470.378 595.256C470.45 595.206 470.486 595.18 470.558 595.155Z" fill="#85F5FF"/>
</g>
<g opacity="0.16">
<path opacity="0.16" d="M470.45 595.053C470.737 594.926 471.095 594.85 471.453 594.926C472.099 595.053 472.529 595.511 472.349 595.993L459.805 632.211C459.626 632.668 458.981 632.973 458.3 632.846C457.655 632.719 457.225 632.262 457.404 631.779L469.948 595.561C470.056 595.333 470.235 595.18 470.45 595.053Z" fill="#85F5FF"/>
</g>
<g opacity="0.11">
<path opacity="0.11" d="M458.156 631.525C458.3 631.449 458.515 631.398 458.694 631.424C459.124 631.449 459.447 631.728 459.411 632.059L447.476 715.263C447.44 715.568 447.046 715.796 446.58 715.771C446.15 715.746 445.827 715.466 445.863 715.136L457.798 631.932C457.87 631.754 457.977 631.601 458.156 631.525Z" fill="#85F5FF"/>
</g>
<g opacity="0.02">
<path opacity="0.02" d="M284.185 713.282C284.22 713.282 284.22 713.256 284.256 713.256L446.687 715.085C446.759 715.085 446.795 715.136 446.795 715.161C446.795 715.212 446.759 715.237 446.687 715.237L284.256 713.409C284.185 713.409 284.149 713.358 284.149 713.333C284.149 713.333 284.185 713.307 284.185 713.282Z" fill="#85F5FF"/>
</g>
<g opacity="0.02">
<path opacity="0.02" d="M446.616 715.11C446.652 715.11 446.687 715.085 446.687 715.085C446.759 715.085 446.831 715.136 446.831 715.187L439.017 843.168C439.017 843.219 438.946 843.269 438.874 843.269C438.802 843.269 438.731 843.219 438.731 843.168L446.544 715.187C446.58 715.161 446.58 715.136 446.616 715.11Z" fill="#85F5FF"/>
</g>
<g opacity="0.18">
<path opacity="0.18" d="M1781.73 558.404C1782.12 558.582 1782.66 558.505 1782.95 558.226L1805.96 532.701V530.39L1781.48 557.566C1781.23 557.82 1781.33 558.226 1781.73 558.404Z" fill="#85F5FF"/>
</g>
<g opacity="0.01">
<path opacity="0.01" d="M1628.9 473.675C1628.94 473.65 1628.97 473.675 1628.97 473.675L1782.23 557.819C1782.26 557.845 1782.26 557.87 1782.23 557.896C1782.19 557.921 1782.16 557.921 1782.12 557.896L1628.87 473.752C1628.87 473.752 1628.87 473.726 1628.9 473.675C1628.9 473.675 1628.9 473.701 1628.9 473.675Z" fill="#85F5FF"/>
</g>
<g opacity="0.1">
<path opacity="0.1" d="M1781.98 557.642C1782.16 557.54 1782.44 557.566 1782.55 557.718C1782.69 557.845 1782.66 558.048 1782.44 558.15L1637.14 633.201C1636.97 633.303 1636.68 633.278 1636.57 633.125C1636.43 632.998 1636.46 632.795 1636.68 632.694L1781.98 557.642Z" fill="#85F5FF"/>
</g>
<g opacity="0.49">
<path opacity="0.49" d="M1780.87 556.524C1781.76 556.067 1783.02 556.143 1783.84 556.702C1784.74 557.337 1784.74 558.378 1783.84 559.013L1687.9 626.852C1687 627.487 1685.53 627.487 1684.63 626.852C1683.74 626.217 1683.74 625.175 1684.63 624.54L1780.58 556.702C1780.69 556.651 1780.76 556.575 1780.87 556.524Z" fill="#85F5FF"/>
</g>
<g opacity="0.47">
<path opacity="0.47" d="M1635.71 631.703C1635.93 631.601 1636.21 631.5 1636.5 631.474L1685.85 624.261C1687 624.083 1688.11 624.617 1688.33 625.43C1688.58 626.242 1687.82 627.03 1686.68 627.182L1637.32 634.395C1636.18 634.573 1635.07 634.04 1634.85 633.227C1634.67 632.643 1635.07 632.033 1635.71 631.703Z" fill="#85F5FF"/>
</g>
<g opacity="0.15">
<path opacity="0.15" d="M1621.37 579.18C1621.45 579.129 1621.55 579.103 1621.63 579.103C1622.02 579.053 1622.38 579.23 1622.45 579.484L1637.61 632.821C1637.68 633.1 1637.43 633.354 1637.07 633.405C1636.68 633.455 1636.32 633.278 1636.25 632.998L1621.09 579.662C1621.02 579.484 1621.16 579.281 1621.37 579.18Z" fill="#85F5FF"/>
</g>
<g opacity="0.09">
<path opacity="0.09" d="M1445.65 643.945C1445.68 643.945 1445.68 643.919 1445.72 643.919L1621.55 579.281C1621.8 579.179 1622.09 579.255 1622.23 579.433C1622.38 579.611 1622.27 579.84 1622.02 579.916L1446.18 644.554C1445.93 644.656 1445.65 644.58 1445.5 644.402C1445.4 644.249 1445.47 644.046 1445.65 643.945Z" fill="#85F5FF"/>
</g>
<g opacity="0.3">
<path opacity="0.3" d="M1507.04 2.3367C1507.15 2.2859 1507.26 2.2351 1507.4 2.2097C1508.15 2.03192 1508.94 2.3113 1509.19 2.84466L1544.71 77.3374C1544.96 77.8708 1544.57 78.4296 1543.81 78.6074C1543.06 78.7851 1542.27 78.5058 1542.02 77.9724L1506.5 3.47961C1506.29 3.04784 1506.54 2.56528 1507.04 2.3367Z" fill="#85F5FF"/>
</g>
<g opacity="0.06">
<path opacity="0.06" d="M1543.21 77.4895C1543.28 77.4641 1543.35 77.4387 1543.42 77.4641C1543.56 77.4895 1543.64 77.5911 1543.6 77.6927L1468.19 248.292C1468.15 248.394 1468.01 248.445 1467.87 248.419C1467.72 248.394 1467.65 248.292 1467.69 248.191L1543.1 77.5911C1543.13 77.5403 1543.17 77.5149 1543.21 77.4895Z" fill="#85F5FF"/>
</g>
<g opacity="0.08">
<path opacity="0.08" d="M1333.25 188.556C1333.36 188.505 1333.54 188.48 1333.68 188.556L1468.15 248.038C1468.33 248.115 1468.37 248.292 1468.26 248.419C1468.15 248.546 1467.9 248.572 1467.72 248.496L1333.25 189.013C1333.07 188.937 1333.03 188.759 1333.14 188.632C1333.18 188.607 1333.21 188.581 1333.25 188.556Z" fill="#85F5FF"/>
</g>
<g opacity="0.23">
<path opacity="0.23" d="M1467.29 247.607C1467.58 247.454 1467.94 247.429 1468.3 247.505C1468.87 247.657 1469.19 248.089 1468.98 248.521L1410.06 365.073C1409.84 365.479 1409.2 365.708 1408.62 365.556C1408.05 365.403 1407.73 364.971 1407.94 364.54L1466.86 247.988C1466.97 247.835 1467.12 247.708 1467.29 247.607Z" fill="#85F5FF"/>
</g>
<g opacity="0.32">
<path opacity="0.32" d="M1408.09 363.905C1408.48 363.702 1408.98 363.651 1409.48 363.752C1410.31 363.93 1410.77 364.565 1410.52 365.175L1382.49 427.781C1382.24 428.365 1381.35 428.696 1380.49 428.518C1379.66 428.34 1379.2 427.705 1379.45 427.095L1407.48 364.489C1407.62 364.235 1407.83 364.032 1408.09 363.905Z" fill="#85F5FF"/>
</g>
<g opacity="0.24">
<path opacity="0.24" d="M1380.27 426.714C1380.7 426.511 1381.28 426.486 1381.71 426.714C1382.24 426.994 1382.39 427.552 1381.99 427.933L1380.81 429.102C1380.42 429.483 1379.63 429.584 1379.09 429.305C1378.55 429.025 1378.41 428.467 1378.8 428.086L1379.99 426.917C1380.06 426.841 1380.17 426.765 1380.27 426.714Z" fill="#85F5FF"/>
</g>
<g opacity="0.14">
<path opacity="0.14" d="M1117.24 2.92072C1117.52 2.76833 1117.95 2.79373 1118.2 2.99691C1118.49 3.2001 1118.49 3.55567 1118.2 3.75886L994.158 89.9856C993.871 90.1888 993.369 90.1888 993.083 89.9856C992.796 89.7824 992.796 89.4268 993.083 89.2236L1117.13 2.99691C1117.16 2.97151 1117.2 2.94612 1117.24 2.92072Z" fill="#85F5FF"/>
</g>
<g opacity="0.06">
<path opacity="0.06" d="M993.405 89.4015C993.549 89.3253 993.692 89.3507 993.835 89.4269L1126.12 180.022C1126.27 180.124 1126.27 180.251 1126.12 180.352C1125.98 180.454 1125.8 180.454 1125.66 180.352L993.37 89.757C993.226 89.6555 993.226 89.5285 993.37 89.4269C993.405 89.4269 993.405 89.4015 993.405 89.4015Z" fill="#85F5FF"/>
</g>
<g opacity="0.05">
<path opacity="0.05" d="M1125.77 180.022C1125.8 179.997 1125.87 179.997 1125.91 179.997C1126.05 179.997 1126.16 180.073 1126.16 180.174L1123.01 326.341C1123.01 326.442 1122.86 326.519 1122.76 326.519C1122.61 326.519 1122.5 326.442 1122.5 326.341L1125.66 180.174C1125.66 180.098 1125.69 180.047 1125.77 180.022Z" fill="#85F5FF"/>
</g>
<g opacity="0.13">
<path opacity="0.13" d="M1122.36 325.935C1122.47 325.884 1122.58 325.858 1122.72 325.833C1123.11 325.808 1123.44 326.036 1123.47 326.316L1132.83 437.356C1132.86 437.636 1132.54 437.864 1132.15 437.89C1131.75 437.915 1131.43 437.686 1131.39 437.407L1122.04 326.366C1122.04 326.189 1122.15 326.036 1122.36 325.935Z" fill="#85F5FF"/>
</g>
<g opacity="0.17">
<path opacity="0.17" d="M1131.54 436.848C1131.61 436.823 1131.68 436.772 1131.79 436.772C1132.29 436.645 1132.86 436.823 1133.04 437.204L1165.12 501.918C1165.3 502.274 1165.01 502.68 1164.51 502.807C1164.01 502.934 1163.43 502.757 1163.26 502.376L1131.18 437.661C1131.03 437.331 1131.21 437.001 1131.54 436.848Z" fill="#85F5FF"/>
</g>
<g opacity="0.13">
<path opacity="0.13" d="M771.442 36.802C771.837 36.6242 772.338 36.675 772.625 36.929L831.942 89.6302C832.229 89.9096 832.193 90.2905 831.798 90.4937C831.404 90.6969 830.867 90.6715 830.58 90.3921L771.263 37.691C770.976 37.4116 771.012 37.0306 771.406 36.8274C771.406 36.8274 771.406 36.8274 771.442 36.802Z" fill="#85F5FF"/>
</g>
<g opacity="0.05">
<path opacity="0.05" d="M831.046 89.8331C831.082 89.8077 831.118 89.8077 831.153 89.8077C831.333 89.7823 831.512 89.8584 831.548 89.96L865.274 177.787C865.31 177.914 865.238 178.041 865.059 178.066C864.88 178.092 864.701 178.015 864.665 177.914L830.938 90.0616C830.867 89.9854 830.938 89.8838 831.046 89.8331Z" fill="#85F5FF"/>
</g>
<g opacity="0.14">
<path opacity="0.14" d="M757.751 151.703C757.966 151.602 758.253 151.551 758.54 151.627L865.274 177.279C865.74 177.381 865.991 177.736 865.812 178.066C865.668 178.397 865.166 178.574 864.7 178.447L757.966 152.795C757.5 152.694 757.249 152.338 757.428 152.008C757.464 151.881 757.572 151.779 757.751 151.703Z" fill="#85F5FF"/>
</g>
<g opacity="0.04">
<path opacity="0.04" d="M864.844 177.711C864.88 177.686 864.916 177.686 864.951 177.686C865.095 177.686 865.202 177.736 865.202 177.838L884.843 301.629C884.843 301.73 884.771 301.806 884.628 301.806C884.485 301.806 884.377 301.756 884.377 301.654L864.736 177.863C864.736 177.813 864.772 177.762 864.844 177.711Z" fill="#85F5FF"/>
</g>
<g opacity="0.02">
<path opacity="0.02" d="M884.521 301.552C884.556 301.552 884.556 301.527 884.592 301.527C884.664 301.527 884.736 301.578 884.736 301.628L892.047 438.753C892.047 438.804 891.976 438.855 891.904 438.855C891.832 438.855 891.76 438.804 891.76 438.753L884.449 301.628C884.449 301.603 884.485 301.578 884.521 301.552Z" fill="#85F5FF"/>
</g>
<g opacity="0.02">
<path opacity="0.02" d="M891.832 438.677C891.868 438.677 891.868 438.651 891.904 438.651C891.976 438.651 892.047 438.702 892.047 438.753L904.161 576.944C904.161 576.995 904.09 577.046 904.018 577.046C903.946 577.046 903.875 576.995 903.875 576.944L891.76 438.753C891.796 438.753 891.796 438.702 891.832 438.677Z" fill="#85F5FF"/>
</g>
<g opacity="0.04">
<path opacity="0.04" d="M903.911 576.843C903.946 576.817 903.982 576.817 903.982 576.817C904.126 576.792 904.233 576.868 904.269 576.944L941.651 705.992C941.687 706.094 941.579 706.17 941.472 706.196C941.329 706.221 941.221 706.145 941.185 706.069L903.803 577.021C903.767 576.944 903.839 576.868 903.911 576.843Z" fill="#85F5FF"/>
</g>
<g opacity="0.14">
<path opacity="0.14" d="M940.898 705.484C941.329 705.281 941.866 705.357 942.153 705.637L974.159 739.01C974.446 739.289 974.338 739.696 973.944 739.899C973.55 740.102 972.976 740.026 972.689 739.721L940.683 706.348C940.397 706.069 940.468 705.688 940.898 705.484Z" fill="#85F5FF"/>
</g>
<g opacity="0.08">
<path opacity="0.08" d="M721.05 382.725C721.157 382.674 721.337 382.623 721.48 382.648L749.579 385.188C749.902 385.214 750.153 385.442 750.117 385.671C750.081 385.899 749.759 386.077 749.436 386.052L721.337 383.512C721.014 383.487 720.763 383.258 720.799 383.029C720.799 382.902 720.907 382.775 721.05 382.725Z" fill="#85F5FF"/>
</g>
<g opacity="0.13">
<path opacity="0.13" d="M720.871 382.572C721.086 382.471 721.373 382.42 721.659 382.496C722.125 382.598 722.376 382.953 722.233 383.283L695.997 440.759C695.854 441.09 695.352 441.267 694.886 441.166C694.42 441.064 694.169 440.709 694.313 440.379L720.548 382.903C720.62 382.75 720.727 382.649 720.871 382.572Z" fill="#85F5FF"/>
</g>
<g opacity="0.1">
<path opacity="0.1" d="M694.778 440.176C694.922 440.099 695.101 440.074 695.28 440.099C695.639 440.15 695.854 440.404 695.746 440.633L662.486 540.346C662.414 540.6 662.056 540.727 661.733 540.676C661.375 540.625 661.16 540.371 661.267 540.143L694.528 440.43C694.563 440.328 694.671 440.226 694.778 440.176Z" fill="#85F5FF"/>
</g>
<g opacity="0.04">
<path opacity="0.04" d="M661.769 540.117C661.805 540.092 661.877 540.092 661.948 540.092C662.092 540.117 662.163 540.193 662.127 540.295L624.494 670.638C624.459 670.74 624.351 670.791 624.208 670.765C624.064 670.74 623.993 670.664 624.028 670.562L661.661 540.219C661.661 540.193 661.697 540.143 661.769 540.117Z" fill="#85F5FF"/>
</g>
<g opacity="0.05">
<path opacity="0.05" d="M624.064 670.435C624.1 670.41 624.136 670.41 624.172 670.41C624.315 670.384 624.459 670.46 624.494 670.562L646.286 760.98C646.321 761.081 646.214 761.183 646.071 761.208C645.927 761.234 645.784 761.157 645.748 761.056L623.957 670.638C623.957 670.562 623.993 670.486 624.064 670.435Z" fill="#85F5FF"/>
</g>
<g opacity="0.12">
<path opacity="0.12" d="M645.641 760.624C645.856 760.522 646.142 760.497 646.357 760.598C646.68 760.725 646.787 761.03 646.608 761.259L593.062 828.589C592.883 828.818 592.453 828.894 592.13 828.767C591.807 828.64 591.7 828.335 591.879 828.107L645.425 760.776C645.497 760.725 645.569 760.675 645.641 760.624Z" fill="#85F5FF"/>
</g>
<g opacity="0.02">
<path opacity="0.02" d="M555.465 449.039C555.465 449.039 555.465 449.014 555.465 449.039C555.536 449.014 555.644 449.014 555.68 449.065L611.377 509.309C611.412 509.36 611.412 509.436 611.341 509.461C611.269 509.512 611.162 509.487 611.09 509.436L555.393 449.192C555.357 449.141 555.357 449.065 555.465 449.039Z" fill="#85F5FF"/>
</g>
<g opacity="0.14">
<path opacity="0.14" d="M496.148 447.82C496.327 447.744 496.542 447.693 496.757 447.693L555.572 448.405C556.146 448.405 556.612 448.735 556.612 449.166C556.612 449.573 556.11 449.903 555.536 449.903L496.721 449.192C496.148 449.192 495.682 448.862 495.682 448.43C495.682 448.151 495.861 447.947 496.148 447.82Z" fill="#85F5FF"/>
</g>
<g opacity="0.19">
<path opacity="0.19" d="M495.969 447.668C496.47 447.414 497.151 447.439 497.617 447.744C498.155 448.1 498.191 448.684 497.689 449.039L433.032 498.439C432.53 498.82 431.706 498.845 431.204 498.49C430.667 498.134 430.631 497.55 431.132 497.194L495.789 447.795C495.825 447.744 495.897 447.693 495.969 447.668Z" fill="#85F5FF"/>
</g>
<g opacity="0.14">
<path opacity="0.14" d="M431.562 497.296C431.849 497.169 432.208 497.144 432.53 497.27C432.96 497.448 433.104 497.829 432.889 498.134L362.425 587.967C362.174 588.272 361.637 588.374 361.207 588.221C360.777 588.043 360.633 587.662 360.848 587.358L431.312 497.524C431.383 497.423 431.455 497.347 431.562 497.296Z" fill="#85F5FF"/>
</g>
<g opacity="0.05">
<path opacity="0.05" d="M361.422 587.484C361.458 587.459 361.529 587.434 361.601 587.434C361.78 587.434 361.888 587.535 361.888 587.662L359.666 637.62C359.666 637.747 359.522 637.849 359.343 637.824C359.164 637.824 359.056 637.722 359.056 637.595L361.278 587.637C361.314 587.586 361.35 587.535 361.422 587.484Z" fill="#85F5FF"/>
</g>
<g opacity="0.03">
<path opacity="0.03" d="M361.493 587.536C361.565 587.51 361.637 587.51 361.708 587.51C361.816 587.536 361.852 587.637 361.816 587.713L284.471 713.409C284.435 713.485 284.292 713.511 284.184 713.485C284.077 713.46 284.041 713.358 284.077 713.282L361.422 587.586C361.422 587.586 361.458 587.561 361.493 587.536Z" fill="#85F5FF"/>
</g>
<g opacity="0.26">
<path opacity="0.26" d="M1508.26 850H1512.06L1480.73 828.995C1480.27 828.691 1479.59 828.665 1479.09 828.919C1479.01 828.945 1478.94 828.996 1478.87 829.046C1478.37 829.427 1478.41 830.011 1478.91 830.342L1508.26 850Z" fill="#85F5FF"/>
</g>
<g opacity="0.02">
<path opacity="0.02" d="M1454.11 752.42C1454.18 752.395 1454.25 752.42 1454.25 752.471L1479.91 829.656C1479.91 829.681 1479.87 829.732 1479.84 829.732C1479.8 829.732 1479.73 829.707 1479.73 829.681L1454.07 752.496C1454.03 752.471 1454.07 752.42 1454.11 752.42Z" fill="#85F5FF"/>
</g>
<g opacity="0.09">
<path opacity="0.09" d="M1628.54 473.904C1628.69 474.056 1628.97 474.107 1629.19 474.031L1805.96 400.275V399.487L1628.69 473.447C1628.69 473.447 1628.65 473.447 1628.65 473.472C1628.47 473.548 1628.44 473.751 1628.54 473.904Z" fill="#85F5FF"/>
</g>
<g opacity="0.25">
<path opacity="0.25" d="M1424.68 540.93C1424.75 540.904 1424.79 540.879 1424.86 540.853L1628.44 472.913C1629.08 472.71 1629.8 472.888 1630.12 473.345C1630.41 473.802 1630.16 474.31 1629.51 474.539L1425.93 542.479C1425.29 542.682 1424.57 542.504 1424.25 542.047C1424 541.641 1424.18 541.184 1424.68 540.93Z" fill="#85F5FF"/>
</g>
<g opacity="0.38">
<path opacity="0.38" d="M1627.83 472.583C1627.97 472.507 1628.15 472.456 1628.33 472.406L1732.12 447.541C1733.16 447.287 1734.27 447.693 1734.6 448.404C1734.95 449.141 1734.38 449.928 1733.38 450.157L1629.58 475.022C1628.54 475.276 1627.43 474.869 1627.11 474.158C1626.82 473.574 1627.15 472.939 1627.83 472.583Z" fill="#85F5FF"/>
</g>
<g opacity="0.11">
<path opacity="0.11" d="M1392.96 481.041C1393 481.016 1393.03 481.016 1393.07 480.99C1393.32 480.914 1393.64 481.016 1393.75 481.194L1425.9 541.514C1426.01 541.717 1425.86 541.921 1425.61 541.997C1425.36 542.073 1425.04 541.971 1424.93 541.794L1392.78 481.473C1392.67 481.321 1392.75 481.143 1392.96 481.041Z" fill="#85F5FF"/>
</g>
<g opacity="0.28">
<path opacity="0.28" d="M1292 594.342C1292.5 594.088 1293.18 594.139 1293.65 594.444C1294.15 594.799 1294.15 595.358 1293.65 595.714L1236.05 636.96C1235.55 637.316 1234.76 637.316 1234.26 636.96C1233.75 636.605 1233.75 636.046 1234.26 635.69L1291.85 594.444C1291.89 594.419 1291.96 594.393 1292 594.342Z" fill="#85F5FF"/>
</g>
<g opacity="0.15">
<path opacity="0.15" d="M1234.72 635.919C1234.87 635.843 1235.04 635.817 1235.22 635.817C1235.62 635.843 1235.91 636.122 1235.87 636.402L1232.5 656.085C1232.46 656.365 1232.07 656.568 1231.68 656.542C1231.28 656.517 1231 656.237 1231.03 655.958L1234.4 636.275C1234.44 636.122 1234.54 635.995 1234.72 635.919Z" fill="#85F5FF"/>
</g>
<g opacity="0.39">
<path opacity="0.39" d="M1506.68 2.00646C1507.19 1.75248 1507.87 1.67629 1508.51 1.82868C1509.55 2.10806 1510.05 2.9208 1509.69 3.63195L1484.86 50.9995C1484.46 51.736 1483.32 52.0916 1482.31 51.8376C1481.27 51.5583 1480.77 50.7455 1481.13 50.0344L1505.97 2.66682C1506.11 2.38744 1506.4 2.15885 1506.68 2.00646Z" fill="#85F5FF"/>
</g>
<g opacity="0.23">
<path opacity="0.23" d="M1208.67 191.095C1208.85 191.019 1209.02 190.968 1209.24 190.968L1333.43 188.022C1334.04 187.997 1334.54 188.352 1334.54 188.759C1334.58 189.191 1334.07 189.546 1333.5 189.546L1209.31 192.492C1208.7 192.518 1208.2 192.162 1208.2 191.756C1208.2 191.476 1208.38 191.248 1208.67 191.095Z" fill="#85F5FF"/>
</g>
<g opacity="0.05">
<path opacity="0.05" d="M1482.85 50.3901C1482.92 50.3394 1483.03 50.3394 1483.14 50.3901C1483.24 50.4409 1483.24 50.5425 1483.17 50.6187L1333.64 188.861C1333.57 188.937 1333.43 188.937 1333.32 188.886C1333.21 188.835 1333.21 188.734 1333.29 188.658L1482.81 50.4155C1482.81 50.4155 1482.85 50.3901 1482.85 50.3901Z" fill="#85F5FF"/>
</g>
<g opacity="0.02">
<path opacity="0.02" d="M1333.43 188.734C1333.46 188.734 1333.5 188.734 1333.5 188.734C1333.54 188.759 1333.54 188.785 1333.5 188.81L1178.63 342.774C1178.6 342.799 1178.56 342.799 1178.52 342.774C1178.49 342.748 1178.49 342.723 1178.52 342.697L1333.43 188.734C1333.43 188.734 1333.43 188.759 1333.43 188.734Z" fill="#85F5FF"/>
</g>
<g opacity="0.06">
<path opacity="0.06" d="M1178.45 342.57C1178.52 342.52 1178.63 342.52 1178.74 342.57C1178.85 342.621 1178.92 342.748 1178.81 342.824L1060.43 479.72C1060.36 479.822 1060.18 479.822 1060.07 479.771C1059.96 479.72 1059.89 479.593 1060 479.517L1178.38 342.621C1178.38 342.621 1178.42 342.596 1178.45 342.57Z" fill="#85F5FF"/>
</g>
<g opacity="0.07">
<path opacity="0.07" d="M1060.03 479.441C1060.11 479.39 1060.25 479.39 1060.36 479.416C1060.54 479.466 1060.61 479.593 1060.54 479.72L991.613 610.368C991.542 610.495 991.362 610.546 991.183 610.495C991.004 610.445 990.932 610.318 991.004 610.191L1059.93 479.543C1059.93 479.492 1060 479.466 1060.03 479.441Z" fill="#85F5FF"/>
</g>
<g opacity="0.05">
<path opacity="0.05" d="M991.147 610.115C991.219 610.089 991.255 610.064 991.327 610.089C991.47 610.089 991.613 610.191 991.578 610.318L973.693 739.416C973.693 739.518 973.549 739.594 973.37 739.594C973.227 739.594 973.083 739.493 973.119 739.366L991.004 610.267C991.04 610.191 991.076 610.14 991.147 610.115Z" fill="#85F5FF"/>
</g>
<g opacity="0.21">
<path opacity="0.21" d="M919.788 13.4101C920.29 13.1561 920.971 13.2577 921.293 13.6133L994.516 89.1474C994.839 89.503 994.732 89.9602 994.23 90.2141C993.728 90.4427 993.047 90.3665 992.724 90.0109L919.537 14.4768C919.179 14.1213 919.322 13.6641 919.788 13.4101Z" fill="#85F5FF"/>
</g>
<g opacity="0.18">
<path opacity="0.18" d="M645.461 760.446C645.748 760.294 646.142 760.268 646.465 760.37C646.967 760.548 647.218 760.954 646.967 761.335L601.52 831.739C601.269 832.095 600.696 832.247 600.158 832.094C599.657 831.917 599.406 831.51 599.657 831.129L645.103 760.726C645.21 760.624 645.318 760.522 645.461 760.446Z" fill="#85F5FF"/>
</g>
<g opacity="0.03">
<path opacity="0.03" d="M771.837 37.2339C771.872 37.2085 771.908 37.2085 771.944 37.2085C772.052 37.2085 772.087 37.2593 772.087 37.3355L758.396 152.237C758.396 152.313 758.325 152.338 758.217 152.338C758.109 152.338 758.074 152.288 758.074 152.211L771.765 37.3101C771.765 37.2847 771.801 37.2339 771.837 37.2339Z" fill="#85F5FF"/>
</g>
<g opacity="0.05">
<path opacity="0.05" d="M758.074 152.059C758.145 152.033 758.217 152.008 758.289 152.033C758.432 152.059 758.504 152.16 758.468 152.262L704.706 275.875C704.671 275.976 704.527 276.027 704.384 276.002C704.241 275.976 704.169 275.875 704.205 275.773L757.966 152.16C758.002 152.11 758.038 152.084 758.074 152.059Z" fill="#85F5FF"/>
</g>
<g opacity="0.05">
<path opacity="0.05" d="M704.276 275.646C704.384 275.595 704.491 275.595 704.599 275.621C704.742 275.671 704.814 275.798 704.706 275.925L610.767 398.624C610.696 398.726 610.516 398.776 610.337 398.7C610.194 398.649 610.122 398.522 610.23 398.395L704.169 275.697C704.205 275.697 704.24 275.671 704.276 275.646Z" fill="#85F5FF"/>
</g>
<g opacity="0.04">
<path opacity="0.04" d="M610.373 398.396C610.445 398.345 610.552 398.345 610.66 398.396C610.767 398.446 610.803 398.548 610.731 398.624L489.696 517.792C489.625 517.868 489.481 517.894 489.374 517.843C489.266 517.792 489.231 517.691 489.302 517.614L610.337 398.446C610.337 398.421 610.337 398.421 610.373 398.396Z" fill="#85F5FF"/>
</g>
<g opacity="0.01">
<path opacity="0.01" d="M489.446 517.665C489.481 517.665 489.517 517.665 489.517 517.665C489.553 517.69 489.553 517.716 489.517 517.741L359.415 637.646C359.379 637.671 359.343 637.671 359.307 637.646C359.271 637.62 359.271 637.595 359.307 637.57L489.446 517.665Z" fill="#85F5FF"/>
</g>
<g opacity="0.15">
<path opacity="0.15" d="M346.046 636.376C346.225 636.3 346.404 636.249 346.619 636.275L359.451 637.011C359.916 637.037 360.275 637.341 360.239 637.672C360.203 638.002 359.773 638.256 359.307 638.23L346.476 637.494C346.01 637.468 345.652 637.164 345.688 636.833C345.688 636.656 345.831 636.478 346.046 636.376Z" fill="#85F5FF"/>
</g>
<g opacity="0.02">
<path opacity="0.02" d="M616.358 249.537C616.394 249.511 616.43 249.511 616.466 249.537L683.489 264.318C683.56 264.344 683.596 264.369 683.56 264.42C683.524 264.471 683.489 264.496 683.417 264.471L616.394 249.689C616.323 249.664 616.287 249.638 616.323 249.587C616.323 249.562 616.323 249.537 616.358 249.537Z" fill="#85F5FF"/>
</g>
<g opacity="0.1">
<path opacity="0.1" d="M534.462 267.569C534.498 267.544 534.569 267.519 534.641 267.519L616.215 249.181C616.538 249.105 616.896 249.232 617.004 249.486C617.111 249.715 616.932 249.968 616.574 250.045L535 268.382C534.677 268.458 534.319 268.331 534.211 268.077C534.139 267.874 534.247 267.671 534.462 267.569Z" fill="#85F5FF"/>
</g>
<g opacity="0.17">
<path opacity="0.17" d="M427.118 305.616C427.154 305.59 427.19 305.565 427.262 305.565L534.354 267.265C534.892 267.061 535.537 267.214 535.824 267.595C536.111 267.976 535.896 268.458 535.358 268.636L428.265 306.937C427.728 307.14 427.082 306.987 426.796 306.606C426.509 306.251 426.652 305.844 427.118 305.616Z" fill="#85F5FF"/>
</g>
<g opacity="0.21">
<path opacity="0.21" d="M299.381 353.263C299.417 353.237 299.453 353.212 299.524 353.212L427.154 305.463C427.763 305.235 428.516 305.413 428.839 305.844C429.161 306.276 428.946 306.81 428.301 307.038L300.671 354.787C300.062 355.015 299.309 354.837 298.987 354.406C298.7 353.999 298.879 353.517 299.381 353.263Z" fill="#85F5FF"/>
</g>
<g opacity="0.07">
<path opacity="0.07" d="M201.535 398.218L299.883 353.745C300.062 353.669 300.313 353.695 300.456 353.822C300.564 353.949 300.492 354.126 300.349 354.228L202.001 398.7C201.822 398.776 201.571 398.751 201.428 398.624C201.284 398.472 201.356 398.319 201.535 398.218Z" fill="#85F5FF"/>
</g>
<g opacity="0.17">
<path opacity="0.17" d="M176.303 408.275L176.339 408.25L299.56 353.415C300.026 353.212 300.6 353.314 300.886 353.644C301.173 353.974 301.03 354.329 300.564 354.583L177.378 409.418C176.913 409.621 176.339 409.52 176.052 409.19C175.766 408.885 175.909 408.478 176.303 408.275Z" fill="#85F5FF"/>
</g>
<g opacity="0.16">
<path opacity="0.16" d="M1414.36 850H1418.95L1383.46 837.58C1383.1 837.453 1382.71 837.479 1382.42 837.631C1382.28 837.707 1382.17 837.784 1382.1 837.911C1381.85 838.266 1382.06 838.698 1382.57 838.876L1414.36 850Z" fill="#85F5FF"/>
</g>
<g opacity="0.23">
<path opacity="0.23" d="M1169.64 782.873C1169.99 782.695 1170.42 782.644 1170.85 782.746L1383.46 837.301C1384.14 837.479 1384.5 838.012 1384.25 838.495C1384 838.977 1383.25 839.231 1382.57 839.053L1169.96 784.498C1169.28 784.32 1168.92 783.787 1169.17 783.304C1169.24 783.152 1169.42 783 1169.64 782.873Z" fill="#85F5FF"/>
</g>
<g opacity="0.27">
<path opacity="0.27" d="M1046.45 781.501C1046.67 781.399 1046.95 781.323 1047.27 781.323L1170.42 782.695C1171.18 782.695 1171.79 783.152 1171.79 783.685C1171.79 784.219 1171.14 784.65 1170.39 784.65L1047.2 783.254C1046.45 783.254 1045.84 782.796 1045.84 782.263C1045.88 781.958 1046.09 781.679 1046.45 781.501Z" fill="#85F5FF"/>
</g>
<g opacity="0.27">
<path opacity="0.27" d="M1046.52 781.577C1047.02 781.323 1047.7 781.374 1048.13 781.679C1048.6 782.034 1048.6 782.593 1048.1 782.923L986.524 825.237C986.022 825.592 985.234 825.567 984.768 825.211C984.302 824.856 984.302 824.297 984.804 823.967L1046.38 781.653C1046.41 781.628 1046.45 781.603 1046.52 781.577Z" fill="#85F5FF"/>
</g>
<g opacity="0.22">
<path opacity="0.22" d="M979.427 850L986.632 824.754C986.739 824.373 986.381 823.992 985.843 823.916C985.556 823.865 985.305 823.916 985.09 824.018C984.875 824.119 984.732 824.271 984.696 824.449L977.384 849.975H979.427V850Z" fill="#85F5FF"/>
</g>
<g opacity="0.35">
<path opacity="0.35" d="M1731.62 447.693C1731.8 447.617 1731.98 447.541 1732.19 447.49C1733.23 447.261 1734.35 447.693 1734.67 448.43L1748.4 480.863C1748.72 481.6 1748.11 482.387 1747.07 482.616C1746.03 482.844 1744.92 482.412 1744.6 481.676L1730.87 449.243C1730.58 448.658 1730.94 448.023 1731.62 447.693Z" fill="#85F5FF"/>
</g>
<g opacity="0.05">
<path opacity="0.05" d="M1103.33 529.044C1103.37 529.044 1103.37 529.018 1103.4 529.018L1393.18 481.193C1393.32 481.168 1393.43 481.219 1393.46 481.32C1393.5 481.422 1393.43 481.498 1393.28 481.524L1103.51 529.348C1103.37 529.374 1103.26 529.323 1103.22 529.221C1103.22 529.145 1103.26 529.069 1103.33 529.044Z" fill="#85F5FF"/>
</g>
<g opacity="0.25">
<path opacity="0.25" d="M1329.56 436.289C1330.1 436.01 1330.85 436.061 1331.35 436.391L1394.25 480.634C1394.79 481.015 1394.79 481.65 1394.25 482.031C1393.71 482.412 1392.82 482.412 1392.28 482.031L1329.38 437.788C1328.84 437.407 1328.84 436.772 1329.38 436.391C1329.41 436.365 1329.49 436.315 1329.56 436.289Z" fill="#85F5FF"/>
</g>
<g opacity="0.08">
<path opacity="0.08" d="M886.958 602.317C886.958 602.317 886.994 602.292 887.029 602.292L1103.33 528.942C1103.51 528.866 1103.76 528.942 1103.83 529.069C1103.94 529.196 1103.87 529.348 1103.65 529.425L887.352 602.774C887.173 602.851 886.922 602.774 886.85 602.647C886.779 602.52 886.814 602.393 886.958 602.317Z" fill="#85F5FF"/>
</g>
<g opacity="0.08">
<path opacity="0.08" d="M886.958 602.317C887.101 602.241 887.316 602.266 887.459 602.368C887.603 602.47 887.603 602.647 887.424 602.749L730.189 703.758C730.01 703.885 729.795 703.859 729.652 703.732C729.508 703.631 729.508 703.453 729.688 703.351L886.922 602.343C886.958 602.317 886.958 602.317 886.958 602.317Z" fill="#85F5FF"/>
</g>
<g opacity="0.04">
<path opacity="0.04" d="M729.831 703.427C729.903 703.402 730.01 703.402 730.082 703.427C730.189 703.478 730.189 703.58 730.118 703.63L600.768 831.51C600.696 831.586 600.553 831.586 600.481 831.535C600.373 831.485 600.373 831.383 600.445 831.332L729.795 703.453C729.795 703.453 729.795 703.427 729.831 703.427Z" fill="#85F5FF"/>
</g>
<g opacity="0.1">
<path opacity="0.1" d="M594.567 850L601.09 831.535C601.162 831.358 600.983 831.18 600.732 831.129C600.588 831.104 600.445 831.129 600.338 831.18C600.23 831.231 600.194 831.282 600.158 831.383L593.599 850.025H594.567V850Z" fill="#85F5FF"/>
</g>
<g opacity="0.05">
<path opacity="0.05" d="M1270.42 85.0074C1270.46 84.982 1270.49 84.982 1270.53 84.982L1482.96 50.3389C1483.1 50.3135 1483.28 50.3897 1483.28 50.4913C1483.32 50.5929 1483.21 50.7199 1483.06 50.7199L1270.64 85.363C1270.49 85.3884 1270.35 85.3122 1270.31 85.2106C1270.28 85.1344 1270.31 85.0328 1270.42 85.0074Z" fill="#85F5FF"/>
</g>
<g opacity="0.39">
<path opacity="0.39" d="M1481.77 49.298C1481.95 49.2218 1482.13 49.1456 1482.31 49.0948L1629.98 14.2485C1631.09 13.9945 1632.31 14.4009 1632.66 15.2136C1633.02 16.001 1632.45 16.8645 1631.3 17.1185L1483.64 51.9648C1482.53 52.2187 1481.31 51.8124 1480.95 50.9996C1480.66 50.3647 1481.02 49.6789 1481.77 49.298Z" fill="#85F5FF"/>
</g>
<g opacity="0.23">
<path opacity="0.23" d="M1269.88 84.4743C1270.21 84.3219 1270.64 84.2711 1270.99 84.3727C1271.6 84.5505 1271.89 85.033 1271.64 85.4648L1210.35 192.035C1210.1 192.467 1209.42 192.67 1208.81 192.493C1208.2 192.315 1207.91 191.832 1208.16 191.401L1269.45 84.8298C1269.56 84.6775 1269.7 84.5759 1269.88 84.4743Z" fill="#85F5FF"/>
</g>
<g opacity="0.19">
<path opacity="0.19" d="M190.353 707.897L346.01 636.3C346.476 636.097 347.049 636.173 347.336 636.503C347.623 636.833 347.515 637.24 347.049 637.443L191.392 709.015C190.926 709.218 190.353 709.142 190.066 708.812C189.815 708.532 189.923 708.126 190.353 707.897Z" fill="#85F5FF"/>
</g>
<g opacity="0.11">
<path opacity="0.11" d="M900.434 0H898.929L920.075 14.2992C920.29 14.4262 920.612 14.4515 920.827 14.2738C921.042 14.1214 921.007 13.8928 920.792 13.7404L900.434 0Z" fill="#85F5FF"/>
</g>
<g opacity="0.05">
<path opacity="0.05" d="M920.29 13.918C920.361 13.8926 920.469 13.8926 920.541 13.918C920.648 13.9688 920.648 14.0704 920.612 14.1212L776.317 165.977C776.245 166.053 776.102 166.053 776.03 166.028C775.922 165.977 775.922 165.875 775.958 165.824L920.254 13.9688C920.254 13.9434 920.29 13.918 920.29 13.918Z" fill="#85F5FF"/>
</g>
<g opacity="0.08">
<path opacity="0.08" d="M775.922 165.672C776.066 165.596 776.281 165.621 776.388 165.697C776.532 165.799 776.496 165.951 776.352 166.053L598.761 278.465C598.617 278.567 598.402 278.541 598.259 278.44C598.116 278.338 598.151 278.186 598.295 278.084L775.922 165.672C775.922 165.697 775.887 165.697 775.922 165.672Z" fill="#85F5FF"/>
</g>
<g opacity="0.07">
<path opacity="0.07" d="M396.761 353.593C396.761 353.593 396.797 353.593 396.797 353.567L598.33 278.059C598.51 277.983 598.725 278.033 598.796 278.16C598.868 278.287 598.832 278.44 598.653 278.491L397.119 353.999C396.94 354.075 396.725 354.025 396.653 353.898C396.582 353.821 396.618 353.669 396.761 353.593Z" fill="#85F5FF"/>
</g>
<g opacity="0.04">
<path opacity="0.04" d="M201.643 398.345L201.679 398.319L396.904 353.669C397.012 353.644 397.119 353.695 397.155 353.746C397.191 353.822 397.155 353.898 397.048 353.923L201.822 398.573C201.714 398.599 201.607 398.548 201.571 398.497C201.535 398.446 201.571 398.37 201.643 398.345Z" fill="#85F5FF"/>
</g>
<g opacity="0.21">
<path opacity="0.21" d="M113.904 428.391C113.94 428.365 114.012 428.34 114.047 428.34L201.284 397.786C201.822 397.608 202.467 397.761 202.718 398.116C202.969 398.497 202.754 398.954 202.252 399.132L114.979 429.686C114.442 429.864 113.797 429.711 113.546 429.356C113.331 429 113.474 428.594 113.904 428.391Z" fill="#85F5FF"/>
</g>
<g opacity="0.17">
<path opacity="0.17" d="M681.912 1.39701C682.234 1.24462 682.664 1.24462 682.987 1.39701C683.417 1.60019 683.489 2.03196 683.202 2.31134L600.445 82.3663C600.158 82.6457 599.549 82.7219 599.155 82.5187C598.761 82.3155 598.653 81.8838 598.94 81.6044L681.697 1.524C681.768 1.4732 681.84 1.4224 681.912 1.39701Z" fill="#85F5FF"/>
</g>
<g opacity="0.21">
<path opacity="0.21" d="M467.224 130.927C467.26 130.902 467.296 130.902 467.332 130.876L599.155 81.2739C599.692 81.0707 600.409 81.2231 600.696 81.6041C600.983 81.985 600.804 82.493 600.23 82.6962L468.407 132.299C467.869 132.502 467.153 132.35 466.866 131.969C466.615 131.613 466.758 131.156 467.224 130.927Z" fill="#85F5FF"/>
</g>
<g opacity="0.24">
<path opacity="0.24" d="M288.414 147.411C288.557 147.335 288.736 147.284 288.951 147.259L467.726 130.724C468.371 130.674 468.98 131.004 469.088 131.461C469.16 131.918 468.694 132.35 468.049 132.426L289.274 148.96C288.629 149.011 288.019 148.681 287.912 148.224C287.876 147.894 288.091 147.589 288.414 147.411Z" fill="#85F5FF"/>
</g>
<g opacity="0.22">
<path opacity="0.22" d="M77.6689 131.131C77.884 131.029 78.1349 130.978 78.3858 131.004L289.202 147.385C289.776 147.436 290.206 147.792 290.134 148.223C290.062 148.63 289.561 148.935 288.951 148.884L78.1349 132.502C77.5614 132.451 77.1313 132.096 77.203 131.664C77.2747 131.435 77.4539 131.258 77.6689 131.131Z" fill="#85F5FF"/>
</g>
<g opacity="0.05">
<path opacity="0.05" d="M1270.67 850H1271.82L1087.63 757.144C1087.52 757.093 1087.34 757.093 1087.24 757.144C1087.2 757.169 1087.17 757.17 1087.17 757.195C1087.06 757.296 1087.09 757.449 1087.24 757.525L1270.67 850Z" fill="#85F5FF"/>
</g>
<g opacity="0.07">
<path opacity="0.07" d="M809.362 677.089C809.47 677.038 809.649 677.013 809.792 677.064L1087.6 757.043C1087.81 757.119 1087.92 757.297 1087.85 757.449C1087.74 757.602 1087.49 757.678 1087.27 757.627L809.47 677.648C809.255 677.572 809.147 677.394 809.219 677.242C809.255 677.165 809.29 677.115 809.362 677.089Z" fill="#85F5FF"/>
</g>
<g opacity="0.08">
<path opacity="0.08" d="M579.406 659.488C579.478 659.438 579.586 659.412 579.729 659.438L809.685 677.039C809.935 677.064 810.115 677.216 810.079 677.394C810.043 677.572 809.828 677.699 809.577 677.674L579.621 660.073C579.371 660.047 579.191 659.895 579.227 659.717C579.227 659.615 579.299 659.539 579.406 659.488Z" fill="#85F5FF"/>
</g>
<g opacity="0.06">
<path opacity="0.06" d="M378.231 678.385C378.267 678.359 378.303 678.359 378.375 678.359L579.657 659.539C579.837 659.514 579.98 659.615 580.016 659.717C580.052 659.844 579.908 659.946 579.765 659.971L378.482 678.791C378.303 678.816 378.16 678.715 378.124 678.613C378.088 678.512 378.124 678.435 378.231 678.385Z" fill="#85F5FF"/>
</g>
<g opacity="0.02">
<path opacity="0.02" d="M190.855 708.431C190.855 708.431 190.89 708.431 190.855 708.431L378.374 678.512C378.41 678.512 378.446 678.512 378.446 678.563C378.446 678.588 378.446 678.613 378.374 678.613L190.89 708.507C190.855 708.507 190.819 708.507 190.819 708.456C190.819 708.456 190.819 708.431 190.855 708.431Z" fill="#85F5FF"/>
</g>
<g opacity="0.08">
<path opacity="0.08" d="M190.675 708.228C190.819 708.151 190.998 708.151 191.141 708.228C191.321 708.304 191.356 708.482 191.249 708.634L54.6591 849.416C54.5157 849.543 54.2648 849.568 54.0856 849.492C53.9064 849.416 53.8706 849.238 53.9781 849.086L190.568 708.304C190.604 708.278 190.64 708.253 190.675 708.228Z" fill="#85F5FF"/>
</g>
<g opacity="0.15">
<path opacity="0.15" d="M1617.79 378.28C1618.19 378.077 1618.76 378.128 1619.08 378.382L1747.25 480.838C1747.61 481.117 1747.57 481.549 1747.18 481.803C1746.78 482.057 1746.17 482.032 1745.81 481.752L1617.65 379.296C1617.29 379.017 1617.32 378.585 1617.72 378.331C1617.72 378.306 1617.75 378.28 1617.79 378.28Z" fill="#85F5FF"/>
</g>
<g opacity="0.36">
<path opacity="0.36" d="M1745.96 482.895L1805.96 492.47V489.067L1747 479.644C1746.32 479.542 1745.67 479.644 1745.13 479.898C1744.67 480.126 1744.34 480.482 1744.2 480.888C1743.91 481.803 1744.7 482.692 1745.96 482.895Z" fill="#85F5FF"/>
</g>
<g opacity="0.08">
<path opacity="0.08" d="M1222.72 279.227C1222.75 279.227 1222.75 279.202 1222.79 279.202C1223.04 279.126 1223.33 279.202 1223.47 279.354L1330.81 436.924C1330.92 437.102 1330.85 437.305 1330.6 437.407C1330.35 437.483 1330.06 437.407 1329.92 437.254L1222.57 279.684C1222.43 279.507 1222.5 279.329 1222.72 279.227Z" fill="#85F5FF"/>
</g>
<g opacity="0.18">
<path opacity="0.18" d="M1329.7 436.442C1329.81 436.391 1329.92 436.366 1330.02 436.34L1618.01 378.077C1618.62 377.95 1619.22 378.204 1619.37 378.61C1619.55 379.017 1619.19 379.474 1618.62 379.575L1330.63 437.839C1330.02 437.966 1329.41 437.712 1329.27 437.305C1329.13 436.975 1329.34 436.645 1329.7 436.442Z" fill="#85F5FF"/>
</g>
<g opacity="0.18">
<path opacity="0.18" d="M-110.89 466.335C-110.819 466.285 -110.711 466.259 -110.604 466.234L114.298 428.391C114.764 428.314 115.23 428.518 115.338 428.848C115.445 429.178 115.159 429.508 114.693 429.584L-110.209 467.427C-110.675 467.504 -111.141 467.3 -111.249 466.97C-111.32 466.742 -111.177 466.488 -110.89 466.335Z" fill="#85F5FF"/>
</g>
<g opacity="0.08">
<path opacity="0.08" d="M114.298 428.797C114.406 428.746 114.585 428.721 114.693 428.772C114.872 428.848 114.944 429 114.836 429.127L22.4022 544.791C22.2947 544.918 22.0796 544.968 21.9004 544.892C21.7212 544.816 21.6495 544.664 21.7571 544.537L114.191 428.899C114.227 428.848 114.263 428.797 114.298 428.797Z" fill="#85F5FF"/>
</g>
<g opacity="0.3">
<path opacity="0.3" d="M1625.14 0L1628.83 15.8992C1629.01 16.6104 1629.94 17.093 1630.94 16.966C1631.95 16.839 1632.63 16.1786 1632.45 15.4675L1628.87 0H1625.14Z" fill="#85F5FF"/>
</g>
<g opacity="0.08">
<path opacity="0.08" d="M1729.83 0L1630.55 15.3659C1630.48 15.3659 1630.44 15.3913 1630.37 15.4167C1630.23 15.4929 1630.16 15.6199 1630.19 15.7723C1630.26 15.95 1630.51 16.077 1630.77 16.0262L1734.27 0H1729.83Z" fill="#85F5FF"/>
</g>
<g opacity="0.08">
<path opacity="0.08" d="M1255.4 0L1270.06 85.2108C1270.1 85.414 1270.35 85.541 1270.6 85.5156C1270.85 85.4902 1271.07 85.3124 1271.03 85.1346L1256.41 0H1255.4Z" fill="#85F5FF"/>
</g>
<g opacity="0.02">
<path opacity="0.02" d="M954.733 154.218C954.769 154.218 954.769 154.192 954.733 154.218L1270.53 85.1094C1270.56 85.1094 1270.64 85.1094 1270.64 85.1602C1270.64 85.1856 1270.64 85.2364 1270.56 85.2364L954.805 154.345C954.769 154.345 954.697 154.345 954.697 154.294C954.697 154.269 954.733 154.218 954.733 154.218Z" fill="#85F5FF"/>
</g>
<g opacity="0.06">
<path opacity="0.06" d="M664.6 200.9C664.636 200.874 664.672 200.874 664.708 200.874L954.697 154.04C954.876 154.015 955.056 154.091 955.091 154.218C955.127 154.345 955.02 154.472 954.841 154.497L664.851 201.331C664.672 201.357 664.493 201.281 664.457 201.154C664.457 201.052 664.493 200.95 664.6 200.9Z" fill="#85F5FF"/>
</g>
<g opacity="0.08">
<path opacity="0.08" d="M382.138 208.874C382.21 208.849 382.281 208.824 382.389 208.824L664.78 200.772C665.031 200.772 665.246 200.899 665.246 201.077C665.246 201.255 665.066 201.407 664.815 201.407L382.425 209.459C382.174 209.459 381.959 209.332 381.959 209.154C381.959 209.027 382.03 208.925 382.138 208.874Z" fill="#85F5FF"/>
</g>
<g opacity="0.07">
<path opacity="0.07" d="M104.621 170.472C104.693 170.421 104.801 170.421 104.944 170.421L382.496 208.849C382.711 208.874 382.855 209.027 382.819 209.179C382.783 209.331 382.568 209.433 382.353 209.408L104.801 171.006C104.585 170.98 104.442 170.828 104.478 170.675C104.478 170.599 104.55 170.523 104.621 170.472Z" fill="#85F5FF"/>
</g>
<g opacity="0.25">
<path opacity="0.25" d="M-78.06 214.361C-77.9524 214.31 -77.8449 214.259 -77.7374 214.234L104.406 169.812C105.123 169.634 105.876 169.914 106.127 170.396C106.378 170.904 105.983 171.438 105.302 171.615L-76.8414 216.062C-77.5582 216.24 -78.3109 215.961 -78.5617 215.478C-78.7409 215.046 -78.5259 214.615 -78.06 214.361Z" fill="#85F5FF"/>
</g>
<g opacity="0.06">
<path opacity="0.06" d="M-80.3897 798.264C-80.318 798.213 -80.1746 798.213 -80.1029 798.264L54.444 849.085C54.5873 849.136 54.6232 849.263 54.5515 849.365C54.4798 849.466 54.3006 849.492 54.1573 849.441L-80.3538 798.594C-80.4972 798.543 -80.533 798.416 -80.4614 798.315C-80.4614 798.289 -80.4255 798.264 -80.3897 798.264Z" fill="#85F5FF"/>
</g>
<g opacity="0.2">
<path opacity="0.2" d="M224.402 850L264.615 830.266C265.332 829.91 265.547 829.173 265.01 828.665C264.508 828.132 263.468 828.005 262.752 828.361L218.631 850H224.402Z" fill="#85F5FF"/>
</g>
<g opacity="0.27">
<path opacity="0.27" d="M269.239 708.024C269.561 707.872 269.956 707.77 270.386 707.796C271.389 707.821 272.214 708.431 272.142 709.142L265.547 829.351C265.511 830.063 264.651 830.647 263.648 830.596C262.644 830.571 261.82 829.961 261.891 829.25L268.486 709.04C268.486 708.634 268.773 708.253 269.239 708.024Z" fill="#85F5FF"/>
</g>
<g opacity="0.19">
<path opacity="0.19" d="M163.616 618.699C164.081 618.47 164.762 618.521 165.121 618.851L271.174 708.608C271.569 708.938 271.497 709.446 271.031 709.751C270.565 710.056 269.848 709.98 269.418 709.65L163.365 619.867C162.97 619.537 163.042 619.029 163.508 618.724C163.544 618.724 163.58 618.699 163.616 618.699Z" fill="#85F5FF"/>
</g>
<g opacity="0.07">
<path opacity="0.07" d="M21.8646 544.435C22.0079 544.358 22.1871 544.358 22.2947 544.435L164.476 619.131C164.655 619.207 164.691 619.385 164.547 619.512C164.44 619.638 164.189 619.664 164.01 619.562L21.8287 544.866C21.6495 544.79 21.6137 544.612 21.757 544.485C21.7929 544.46 21.8287 544.435 21.8646 544.435Z" fill="#85F5FF"/>
</g>
<g opacity="0.1">
<path opacity="0.1" d="M1220.92 850H1223L1064.87 705.51C1064.59 705.256 1064.12 705.205 1063.73 705.383C1063.73 705.383 1063.69 705.383 1063.69 705.408C1063.33 705.612 1063.26 705.967 1063.55 706.221L1220.92 850Z" fill="#85F5FF"/>
</g>
<g opacity="0.07">
<path opacity="0.07" d="M754.239 542.098C754.418 542.022 754.633 542.022 754.812 542.098L1064.55 705.586C1064.76 705.713 1064.8 705.916 1064.66 706.069C1064.48 706.221 1064.19 706.246 1063.98 706.145L754.239 542.657C754.024 542.53 753.988 542.327 754.131 542.174C754.131 542.149 754.167 542.124 754.239 542.098Z" fill="#85F5FF"/>
</g>
<g opacity="0.04">
<path opacity="0.04" d="M454.25 427.73C454.322 427.68 454.465 427.68 454.537 427.73L754.633 542.225C754.776 542.276 754.812 542.403 754.74 542.505C754.669 542.606 754.49 542.632 754.346 542.581L454.25 428.086C454.107 428.035 454.071 427.908 454.142 427.807C454.214 427.781 454.214 427.756 454.25 427.73Z" fill="#85F5FF"/>
</g>
<g opacity="0.04">
<path opacity="0.04" d="M177.988 327.763C178.059 327.738 178.167 327.712 178.239 327.738L454.537 427.73C454.68 427.781 454.716 427.882 454.644 427.984C454.572 428.086 454.429 428.111 454.286 428.06L177.988 328.068C177.844 328.017 177.809 327.915 177.88 327.814C177.916 327.788 177.952 327.763 177.988 327.763Z" fill="#85F5FF"/>
</g>
<g opacity="0.07">
<path opacity="0.07" d="M-77.5224 214.919C-77.379 214.843 -77.2356 214.843 -77.0923 214.919L178.346 327.687C178.525 327.763 178.597 327.941 178.49 328.068C178.382 328.195 178.131 328.246 177.952 328.169L-77.4865 215.376C-77.6657 215.3 -77.7374 215.122 -77.6299 214.995C-77.5941 214.97 -77.5582 214.944 -77.5224 214.919Z" fill="#85F5FF"/>
</g>
<g opacity="0.07">
<path opacity="0.07" d="M869.647 204.633C869.754 204.582 869.933 204.557 870.077 204.582L1223.11 279.177C1223.36 279.227 1223.54 279.431 1223.43 279.608C1223.36 279.786 1223.07 279.913 1222.82 279.837L869.79 205.243C869.539 205.192 869.396 204.989 869.467 204.811C869.503 204.76 869.575 204.684 869.647 204.633Z" fill="#85F5FF"/>
</g>
<g opacity="0.19">
<path opacity="0.19" d="M563.852 125.34C564.21 125.162 564.64 125.111 565.07 125.213L870.399 204.049C871.08 204.227 871.439 204.76 871.188 205.242C870.937 205.725 870.184 205.979 869.503 205.801L564.138 126.991C563.457 126.813 563.099 126.28 563.35 125.797C563.457 125.594 563.637 125.441 563.852 125.34Z" fill="#85F5FF"/>
</g>
<g opacity="0.27">
<path opacity="0.27" d="M293.073 17.5503C293.682 17.2455 294.471 17.1947 295.152 17.4741L565.572 124.883C566.504 125.264 566.862 126.102 566.324 126.788C565.787 127.448 564.604 127.702 563.636 127.321L293.216 19.9123C292.285 19.5313 291.926 18.6932 292.464 18.0074C292.607 17.8296 292.822 17.6773 293.073 17.5503Z" fill="#85F5FF"/>
</g>
<path opacity="0.51" d="M1777.5 133.239C1778.32 134.407 1777.64 135.804 1776.03 136.388C1774.38 136.972 1772.41 136.49 1771.58 135.347C1770.76 134.178 1771.44 132.781 1773.05 132.197C1774.67 131.613 1776.67 132.096 1777.5 133.239Z" fill="#85F5FF"/>
<path opacity="0.48" d="M1776.64 329.49C1777.43 330.608 1776.78 331.979 1775.2 332.538C1773.63 333.097 1771.69 332.64 1770.9 331.522C1770.11 330.405 1770.76 329.033 1772.34 328.474C1773.91 327.916 1775.85 328.373 1776.64 329.49Z" fill="#85F5FF"/>
<path opacity="0.46" d="M1784.49 468.291C1785.28 469.383 1784.63 470.704 1783.09 471.263C1781.55 471.822 1779.68 471.364 1778.9 470.272C1778.11 469.18 1778.75 467.859 1780.29 467.301C1781.87 466.767 1783.73 467.199 1784.49 468.291Z" fill="#85F5FF"/>
<path opacity="0.44" d="M1427.12 99.0276C1427.87 100.094 1427.26 101.415 1425.75 101.948C1424.25 102.482 1422.39 102.05 1421.63 100.983C1420.88 99.9165 1421.49 98.5958 1423 98.0625C1424.54 97.5037 1426.36 97.9609 1427.12 99.0276Z" fill="#85F5FF"/>
<path opacity="0.37" d="M1518.62 245.372C1519.3 246.337 1518.76 247.53 1517.36 248.038C1516 248.521 1514.32 248.14 1513.6 247.149C1512.92 246.184 1513.46 244.991 1514.86 244.483C1516.25 244 1517.9 244.381 1518.62 245.372Z" fill="#85F5FF"/>
<path opacity="0.26" d="M868.356 52.4219C868.93 53.26 868.464 54.2505 867.317 54.6823C866.134 55.0887 864.736 54.7585 864.127 53.9458C863.554 53.1076 864.02 52.1171 865.166 51.6853C866.349 51.2536 867.783 51.5837 868.356 52.4219Z" fill="#85F5FF"/>
<path opacity="0.31" d="M939.68 39.4431C940.325 40.3574 939.787 41.4496 938.533 41.9067C937.243 42.3639 935.701 41.9829 935.056 41.094C934.411 40.1797 934.949 39.0875 936.203 38.6304C937.458 38.1732 939.035 38.5542 939.68 39.4431Z" fill="#85F5FF"/>
<path opacity="0.34" d="M1029.46 94.6333C1030.14 95.573 1029.6 96.716 1028.24 97.1985C1026.88 97.6811 1025.3 97.3001 1024.62 96.335C1023.94 95.3953 1024.48 94.2523 1025.84 93.7698C1027.17 93.3126 1028.78 93.6936 1029.46 94.6333Z" fill="#85F5FF"/>
<path opacity="0.34" d="M1112.33 168.44C1113.01 169.38 1112.47 170.523 1111.11 171.006C1109.78 171.488 1108.17 171.107 1107.49 170.142C1106.81 169.202 1107.34 168.06 1108.71 167.577C1110.03 167.094 1111.64 167.475 1112.33 168.44Z" fill="#85F5FF"/>
<path opacity="0.31" d="M1249.17 226.501C1249.81 227.415 1249.27 228.507 1248.02 228.964C1246.73 229.422 1245.19 229.041 1244.54 228.152C1243.9 227.237 1244.44 226.145 1245.69 225.688C1246.98 225.206 1248.52 225.587 1249.17 226.501Z" fill="#85F5FF"/>
<path opacity="0.21" d="M843.017 472.99C843.554 473.727 843.124 474.641 842.085 475.022C841.045 475.403 839.755 475.098 839.218 474.362C838.68 473.625 839.11 472.711 840.15 472.33C841.189 471.949 842.479 472.253 843.017 472.99Z" fill="#85F5FF"/>
<path opacity="0.24" d="M854.02 405.405C854.593 406.193 854.128 407.158 853.016 407.564C851.905 407.971 850.543 407.641 849.97 406.853C849.396 406.066 849.862 405.101 850.973 404.694C852.084 404.288 853.482 404.593 854.02 405.405Z" fill="#85F5FF"/>
<path opacity="0.27" d="M891.187 404.008C891.796 404.847 891.295 405.888 890.112 406.294C888.929 406.726 887.46 406.37 886.886 405.532C886.277 404.694 886.779 403.653 887.961 403.246C889.144 402.815 890.614 403.17 891.187 404.008Z" fill="#85F5FF"/>
<path opacity="0.28" d="M947.457 439.287C948.067 440.15 947.565 441.192 946.346 441.623C945.128 442.055 943.658 441.7 943.049 440.836C942.44 439.972 942.941 438.931 944.16 438.499C945.343 438.093 946.848 438.449 947.457 439.287Z" fill="#85F5FF"/>
<path opacity="0.28" d="M1017.81 475.911C1018.42 476.774 1017.92 477.815 1016.7 478.247C1015.48 478.679 1014.01 478.323 1013.4 477.46C1012.8 476.596 1013.3 475.555 1014.52 475.123C1015.7 474.691 1017.2 475.047 1017.81 475.911Z" fill="#85F5FF"/>
<path opacity="0.27" d="M1094.98 476.317C1095.59 477.155 1095.09 478.196 1093.9 478.603C1092.72 479.035 1091.25 478.679 1090.68 477.841C1090.07 477.003 1090.57 475.961 1091.75 475.555C1092.94 475.123 1094.37 475.479 1094.98 476.317Z" fill="#85F5FF"/>
<path opacity="0.23" d="M675.245 680.315C675.783 681.102 675.353 682.042 674.242 682.423C673.131 682.804 671.804 682.499 671.267 681.712C670.729 680.925 671.159 679.985 672.27 679.604C673.346 679.223 674.708 679.528 675.245 680.315Z" fill="#85F5FF"/>
<path opacity="0.25" d="M685.675 629.163C686.248 629.976 685.782 630.966 684.636 631.373C683.489 631.779 682.091 631.449 681.517 630.636C680.944 629.823 681.41 628.833 682.557 628.426C683.704 628.02 685.101 628.35 685.675 629.163Z" fill="#85F5FF"/>
<path opacity="0.27" d="M703.524 635.919C704.133 636.757 703.631 637.798 702.448 638.205C701.266 638.636 699.796 638.281 699.223 637.443C698.613 636.605 699.115 635.563 700.298 635.157C701.481 634.725 702.914 635.055 703.524 635.919Z" fill="#85F5FF"/>
<path opacity="0.3" d="M737.823 689.23C738.433 690.119 737.931 691.186 736.712 691.617C735.458 692.049 733.953 691.694 733.343 690.83C732.734 689.941 733.236 688.874 734.454 688.443C735.673 688.011 737.178 688.366 737.823 689.23Z" fill="#85F5FF"/>
<path opacity="0.31" d="M799.972 767.989C800.617 768.904 800.079 769.996 798.825 770.453C797.535 770.91 795.993 770.529 795.348 769.64C794.703 768.751 795.241 767.634 796.495 767.176C797.785 766.719 799.362 767.075 799.972 767.989Z" fill="#85F5FF"/>
<path opacity="0.31" d="M904.126 838.139C904.771 839.053 904.233 840.145 902.979 840.603C901.724 841.06 900.147 840.679 899.502 839.79C898.857 838.876 899.395 837.783 900.649 837.326C901.903 836.844 903.48 837.225 904.126 838.139Z" fill="#85F5FF"/>
<path opacity="0.21" d="M484.858 602.724C485.396 603.46 484.966 604.375 483.926 604.756C482.887 605.137 481.596 604.832 481.059 604.095C480.521 603.359 480.951 602.444 481.991 602.063C483.066 601.657 484.356 601.962 484.858 602.724Z" fill="#85F5FF"/>
<path opacity="0.24" d="M473.21 595.053C473.783 595.841 473.317 596.806 472.206 597.212C471.095 597.619 469.733 597.289 469.16 596.501C468.586 595.714 469.052 594.749 470.163 594.342C471.274 593.936 472.636 594.241 473.21 595.053Z" fill="#85F5FF"/>
<path opacity="0.26" d="M460.737 631.22C461.311 632.059 460.845 633.049 459.698 633.481C458.515 633.887 457.117 633.557 456.508 632.744C455.934 631.906 456.4 630.916 457.547 630.484C458.73 630.078 460.164 630.408 460.737 631.22Z" fill="#85F5FF"/>
<path opacity="0.29" d="M448.945 714.399C449.555 715.288 449.053 716.355 447.834 716.786C446.58 717.218 445.075 716.863 444.465 715.999C443.856 715.11 444.358 714.043 445.576 713.612C446.831 713.155 448.336 713.51 448.945 714.399Z" fill="#85F5FF"/>
<path opacity="0.33" d="M441.24 842.355C441.885 843.27 441.383 844.412 440.057 844.87C438.767 845.327 437.154 844.971 436.509 844.032C435.863 843.117 436.365 841.974 437.691 841.517C439.017 841.034 440.594 841.416 441.24 842.355Z" fill="#85F5FF"/>
<path opacity="0.59" d="M1785.45 556.727C1786.35 557.997 1785.63 559.547 1783.84 560.182C1782.05 560.817 1779.86 560.309 1778.97 559.039C1778.07 557.769 1778.79 556.22 1780.58 555.585C1782.37 554.924 1784.56 555.432 1785.45 556.727Z" fill="#85F5FF"/>
<path opacity="0.57" d="M1689.4 624.591C1690.26 625.81 1689.58 627.309 1687.82 627.918C1686.1 628.528 1683.99 628.045 1683.13 626.801C1682.27 625.582 1682.95 624.083 1684.71 623.474C1686.43 622.89 1688.54 623.372 1689.4 624.591Z" fill="#85F5FF"/>
<path opacity="0.5" d="M1639.83 631.906C1640.66 633.049 1639.98 634.446 1638.36 635.005C1636.75 635.589 1634.78 635.106 1633.99 633.963C1633.2 632.82 1633.85 631.423 1635.46 630.865C1637.07 630.281 1639.04 630.763 1639.83 631.906Z" fill="#85F5FF"/>
<path opacity="0.41" d="M1624.46 578.646C1625.21 579.687 1624.6 580.957 1623.13 581.491C1621.66 582.024 1619.87 581.592 1619.12 580.551C1618.36 579.509 1618.97 578.24 1620.44 577.706C1621.91 577.173 1623.7 577.605 1624.46 578.646Z" fill="#85F5FF"/>
<path opacity="0.58" d="M1546.47 76.5248C1547.33 77.744 1546.65 79.2425 1544.89 79.852C1543.17 80.4616 1541.06 79.979 1540.19 78.7345C1539.33 77.5154 1540.02 76.0169 1541.77 75.4073C1543.53 74.8232 1545.61 75.3057 1546.47 76.5248Z" fill="#85F5FF"/>
<path opacity="0.52" d="M1470.95 247.175C1471.77 248.343 1471.09 249.791 1469.45 250.375C1467.8 250.959 1465.75 250.502 1464.93 249.309C1464.1 248.14 1464.79 246.693 1466.43 246.108C1468.08 245.55 1470.13 246.007 1470.95 247.175Z" fill="#85F5FF"/>
<path opacity="0.47" d="M1411.85 363.803C1412.64 364.921 1411.99 366.267 1410.45 366.826C1408.87 367.384 1406.97 366.927 1406.19 365.835C1405.4 364.743 1406.04 363.372 1407.58 362.813C1409.16 362.254 1411.06 362.711 1411.85 363.803Z" fill="#85F5FF"/>
<path opacity="0.42" d="M1383.64 426.486C1384.39 427.527 1383.79 428.797 1382.32 429.33C1380.85 429.864 1379.05 429.432 1378.3 428.391C1377.55 427.349 1378.16 426.079 1379.63 425.546C1381.1 425.013 1382.89 425.444 1383.64 426.486Z" fill="#85F5FF"/>
<path opacity="0.36" d="M1382.28 427.705C1382.96 428.67 1382.42 429.864 1381.03 430.372C1379.66 430.854 1377.98 430.473 1377.26 429.483C1376.58 428.518 1377.12 427.324 1378.52 426.816C1379.91 426.333 1381.6 426.74 1382.28 427.705Z" fill="#85F5FF"/>
<path opacity="0.47" d="M1120.5 2.36218C1121.29 3.4797 1120.64 4.8258 1119.1 5.38456C1117.52 5.94332 1115.62 5.48616 1114.83 4.39403C1114.05 3.27652 1114.69 1.93041 1116.23 1.37165C1117.81 0.812895 1119.71 1.24466 1120.5 2.36218Z" fill="#85F5FF"/>
<path opacity="0.4" d="M1125.37 325.427C1126.09 326.443 1125.52 327.713 1124.08 328.22C1122.65 328.728 1120.86 328.322 1120.14 327.306C1119.42 326.29 1120 325.02 1121.43 324.512C1122.9 323.979 1124.65 324.385 1125.37 325.427Z" fill="#85F5FF"/>
<path opacity="0.37" d="M1134.62 436.518C1135.3 437.483 1134.76 438.677 1133.36 439.185C1132 439.667 1130.32 439.286 1129.6 438.296C1128.92 437.331 1129.46 436.137 1130.86 435.629C1132.25 435.147 1133.9 435.527 1134.62 436.518Z" fill="#85F5FF"/>
<path opacity="0.33" d="M1166.55 501.283C1167.2 502.198 1166.7 503.341 1165.37 503.798C1164.08 504.255 1162.47 503.899 1161.82 502.96C1161.18 502.02 1161.68 500.903 1163 500.445C1164.33 499.988 1165.91 500.344 1166.55 501.283Z" fill="#85F5FF"/>
<path opacity="0.3" d="M833.483 89.2237C834.092 90.1127 833.591 91.1794 832.372 91.6112C831.118 92.0429 829.612 91.6874 829.003 90.8238C828.394 89.9349 828.895 88.8682 830.114 88.4364C831.368 87.9792 832.874 88.3348 833.483 89.2237Z" fill="#85F5FF"/>
<path opacity="0.33" d="M867.353 177.025C867.998 177.94 867.496 179.082 866.17 179.54C864.88 179.997 863.267 179.641 862.622 178.701C861.977 177.787 862.478 176.644 863.804 176.187C865.131 175.73 866.672 176.085 867.353 177.025Z" fill="#85F5FF"/>
<path opacity="0.34" d="M887.029 300.791C887.71 301.73 887.173 302.873 885.811 303.356C884.485 303.838 882.872 303.457 882.191 302.492C881.51 301.552 882.047 300.41 883.409 299.927C884.736 299.47 886.349 299.851 887.029 300.791Z" fill="#85F5FF"/>
<path opacity="0.35" d="M894.377 437.89C895.058 438.855 894.52 440.023 893.158 440.506C891.796 440.988 890.148 440.607 889.467 439.642C888.786 438.677 889.323 437.509 890.685 437.026C892.047 436.543 893.696 436.95 894.377 437.89Z" fill="#85F5FF"/>
<path opacity="0.35" d="M906.491 576.107C907.172 577.072 906.634 578.24 905.272 578.723C903.91 579.205 902.262 578.824 901.581 577.859C900.9 576.894 901.437 575.726 902.799 575.243C904.161 574.76 905.81 575.141 906.491 576.107Z" fill="#85F5FF"/>
<path opacity="0.34" d="M943.801 705.154C944.482 706.094 943.945 707.237 942.583 707.719C941.257 708.202 939.644 707.821 938.963 706.856C938.282 705.916 938.82 704.773 940.182 704.291C941.544 703.834 943.156 704.215 943.801 705.154Z" fill="#85F5FF"/>
<path opacity="0.23" d="M751.479 384.909C752.017 385.697 751.586 386.636 750.475 387.017C749.364 387.398 748.038 387.093 747.501 386.306C746.963 385.519 747.393 384.579 748.504 384.198C749.579 383.817 750.941 384.122 751.479 384.909Z" fill="#85F5FF"/>
<path opacity="0.27" d="M723.559 382.318C724.168 383.156 723.666 384.198 722.484 384.604C721.301 385.036 719.831 384.68 719.258 383.842C718.649 383.004 719.15 381.963 720.333 381.556C721.48 381.124 722.949 381.455 723.559 382.318Z" fill="#85F5FF"/>
<path opacity="0.3" d="M697.431 439.744C698.076 440.633 697.538 441.725 696.284 442.182C695.029 442.639 693.488 442.258 692.843 441.369C692.198 440.48 692.736 439.388 693.99 438.931C695.28 438.474 696.821 438.829 697.431 439.744Z" fill="#85F5FF"/>
<path opacity="0.33" d="M664.242 539.431C664.887 540.346 664.385 541.489 663.059 541.946C661.733 542.403 660.156 542.047 659.511 541.108C658.866 540.193 659.368 539.05 660.694 538.593C662.02 538.136 663.597 538.492 664.242 539.431Z" fill="#85F5FF"/>
<path opacity="0.35" d="M626.681 669.724C627.362 670.689 626.824 671.857 625.462 672.34C624.1 672.823 622.451 672.442 621.77 671.476C621.09 670.511 621.627 669.343 622.989 668.86C624.351 668.378 626 668.784 626.681 669.724Z" fill="#85F5FF"/>
<path opacity="0.38" d="M595.033 827.446C595.75 828.437 595.176 829.656 593.779 830.138C592.381 830.646 590.661 830.24 589.98 829.249C589.263 828.259 589.836 827.04 591.234 826.557C592.632 826.075 594.352 826.456 595.033 827.446Z" fill="#85F5FF"/>
<path opacity="0.22" d="M613.169 508.674C613.706 509.436 613.276 510.35 612.201 510.731C611.126 511.112 609.835 510.807 609.298 510.046C608.76 509.284 609.19 508.369 610.266 507.988C611.341 507.607 612.631 507.912 613.169 508.674Z" fill="#85F5FF"/>
<path opacity="0.25" d="M557.615 448.379C558.189 449.192 557.723 450.182 556.576 450.588C555.429 450.995 554.031 450.665 553.458 449.852C552.884 449.039 553.35 448.049 554.497 447.642C555.644 447.261 557.042 447.566 557.615 448.379Z" fill="#85F5FF"/>
<path opacity="0.29" d="M498.943 447.643C499.553 448.506 499.051 449.547 497.832 449.979C496.614 450.411 495.144 450.055 494.535 449.192C493.926 448.328 494.428 447.287 495.646 446.855C496.829 446.423 498.334 446.779 498.943 447.643Z" fill="#85F5FF"/>
<path opacity="0.31" d="M434.43 496.991C435.075 497.905 434.537 498.998 433.283 499.455C431.993 499.912 430.452 499.531 429.806 498.642C429.161 497.728 429.699 496.636 430.953 496.178C432.208 495.721 433.785 496.077 434.43 496.991Z" fill="#85F5FF"/>
<path opacity="0.33" d="M363.966 586.825C364.612 587.764 364.11 588.882 362.784 589.339C361.493 589.796 359.881 589.441 359.235 588.501C358.59 587.586 359.092 586.444 360.418 585.986C361.744 585.529 363.321 585.885 363.966 586.825Z" fill="#85F5FF"/>
<path opacity="0.34" d="M286.693 712.494C287.374 713.434 286.837 714.577 285.475 715.059C284.113 715.542 282.536 715.161 281.855 714.196C281.174 713.256 281.711 712.113 283.073 711.631C284.4 711.173 286.012 711.554 286.693 712.494Z" fill="#85F5FF"/>
<path opacity="0.59" d="M1483.17 828.437C1484.1 829.758 1483.35 831.383 1481.49 832.044C1479.62 832.704 1477.33 832.171 1476.4 830.85C1475.47 829.529 1476.22 827.904 1478.08 827.243C1479.98 826.583 1482.24 827.116 1483.17 828.437Z" fill="#85F5FF"/>
<path opacity="0.51" d="M1457.12 751.43C1457.94 752.598 1457.26 753.995 1455.65 754.579C1454 755.163 1452.03 754.681 1451.2 753.538C1450.38 752.369 1451.06 750.973 1452.67 750.388C1454.28 749.804 1456.29 750.261 1457.12 751.43Z" fill="#85F5FF"/>
<path opacity="0.38" d="M1448.51 643.31C1449.23 644.326 1448.66 645.545 1447.22 646.053C1445.79 646.561 1444.07 646.154 1443.35 645.138C1442.64 644.123 1443.21 642.903 1444.64 642.395C1446.08 641.913 1447.8 642.319 1448.51 643.31Z" fill="#85F5FF"/>
<path opacity="0.59" d="M1632.41 472.482C1633.38 473.828 1632.59 475.479 1630.69 476.164C1628.79 476.85 1626.46 476.291 1625.5 474.945C1624.53 473.599 1625.32 471.948 1627.22 471.263C1629.12 470.577 1631.45 471.136 1632.41 472.482Z" fill="#85F5FF"/>
<path opacity="0.46" d="M1237.95 635.335C1238.74 636.452 1238.09 637.798 1236.55 638.357C1234.97 638.916 1233.07 638.459 1232.29 637.367C1231.5 636.275 1232.14 634.903 1233.68 634.344C1235.26 633.76 1237.2 634.217 1237.95 635.335Z" fill="#85F5FF"/>
<path opacity="0.38" d="M1234.33 655.094C1235.05 656.11 1234.47 657.33 1233.04 657.837C1231.6 658.345 1229.88 657.939 1229.17 656.923C1228.45 655.907 1229.02 654.688 1230.46 654.18C1231.89 653.698 1233.61 654.104 1234.33 655.094Z" fill="#85F5FF"/>
<path opacity="0.59" d="M1511.27 1.93045C1512.2 3.27655 1511.45 4.90203 1509.55 5.56238C1507.65 6.22273 1505.36 5.68937 1504.43 4.34327C1503.49 2.99717 1504.25 1.37169 1506.15 0.711335C1508.01 0.0509829 1510.3 0.584344 1511.27 1.93045Z" fill="#85F5FF"/>
<path opacity="0.49" d="M1063.15 478.603C1063.98 479.746 1063.3 481.143 1061.68 481.701C1060.07 482.286 1058.1 481.803 1057.31 480.66C1056.49 479.517 1057.17 478.12 1058.78 477.561C1060.36 476.977 1062.33 477.46 1063.15 478.603Z" fill="#85F5FF"/>
<path opacity="0.41" d="M976.094 738.426C976.847 739.467 976.238 740.737 974.768 741.27C973.299 741.804 971.507 741.372 970.754 740.331C970.001 739.289 970.611 738.019 972.08 737.486C973.55 736.953 975.342 737.384 976.094 738.426Z" fill="#85F5FF"/>
<path opacity="0.49" d="M996.524 88.5633C997.348 89.7062 996.667 91.1031 995.054 91.6618C993.441 92.246 991.47 91.7634 990.682 90.6205C989.857 89.4776 990.538 88.0807 992.151 87.5219C993.764 86.9378 995.735 87.4204 996.524 88.5633Z" fill="#85F5FF"/>
<path opacity="0.43" d="M648.759 760.065C649.511 761.132 648.902 762.402 647.397 762.935C645.891 763.469 644.099 763.037 643.347 761.97C642.594 760.903 643.203 759.634 644.709 759.1C646.178 758.592 648.006 759.024 648.759 760.065Z" fill="#85F5FF"/>
<path opacity="0.34" d="M774.345 36.4717C775.026 37.4114 774.489 38.5543 773.127 39.0369C771.801 39.5195 770.188 39.1385 769.507 38.1734C768.826 37.2336 769.363 36.0907 770.725 35.6082C772.052 35.151 773.7 35.532 774.345 36.4717Z" fill="#85F5FF"/>
<path opacity="0.37" d="M760.762 151.322C761.478 152.313 760.905 153.532 759.507 154.014C758.109 154.522 756.389 154.116 755.708 153.125C754.991 152.135 755.565 150.916 756.963 150.433C758.36 149.925 760.081 150.332 760.762 151.322Z" fill="#85F5FF"/>
<path opacity="0.39" d="M707.036 274.909C707.753 275.925 707.179 277.144 705.746 277.652C704.312 278.16 702.592 277.754 701.875 276.738C701.158 275.722 701.732 274.503 703.165 273.995C704.599 273.512 706.319 273.919 707.036 274.909Z" fill="#85F5FF"/>
<path opacity="0.4" d="M613.133 397.608C613.85 398.624 613.276 399.894 611.843 400.402C610.409 400.91 608.617 400.503 607.9 399.487C607.183 398.472 607.757 397.202 609.19 396.694C610.66 396.16 612.416 396.592 613.133 397.608Z" fill="#85F5FF"/>
<path opacity="0.41" d="M492.17 516.751C492.922 517.792 492.313 519.062 490.844 519.595C489.374 520.129 487.582 519.697 486.829 518.655C486.077 517.614 486.686 516.344 488.155 515.811C489.625 515.303 491.417 515.709 492.17 516.751Z" fill="#85F5FF"/>
<path opacity="0.4" d="M361.995 636.681C362.712 637.697 362.139 638.967 360.705 639.475C359.271 639.983 357.479 639.576 356.762 638.56C356.046 637.544 356.619 636.275 358.053 635.767C359.522 635.259 361.278 635.665 361.995 636.681Z" fill="#85F5FF"/>
<path opacity="0.24" d="M685.46 263.658C686.033 264.446 685.567 265.411 684.456 265.817C683.345 266.224 681.983 265.893 681.41 265.106C680.836 264.319 681.302 263.354 682.413 262.947C683.524 262.541 684.922 262.846 685.46 263.658Z" fill="#85F5FF"/>
<path opacity="0.29" d="M618.652 248.8C619.262 249.689 618.76 250.756 617.541 251.188C616.287 251.62 614.781 251.264 614.172 250.4C613.563 249.512 614.065 248.445 615.283 248.013C616.538 247.556 618.043 247.911 618.652 248.8Z" fill="#85F5FF"/>
<path opacity="0.34" d="M537.222 267.087C537.903 268.027 537.365 269.17 536.003 269.652C534.677 270.135 533.064 269.754 532.383 268.789C531.702 267.849 532.24 266.706 533.602 266.223C534.964 265.741 536.577 266.122 537.222 267.087Z" fill="#85F5FF"/>
<path opacity="0.38" d="M430.272 305.337C430.989 306.327 430.416 307.546 429.018 308.029C427.62 308.537 425.9 308.131 425.219 307.14C424.502 306.15 425.075 304.93 426.473 304.448C427.871 303.94 429.555 304.346 430.272 305.337Z" fill="#85F5FF"/>
<path opacity="0.39" d="M302.678 353.085C303.395 354.101 302.822 355.32 301.388 355.828C299.955 356.336 298.234 355.93 297.517 354.914C296.801 353.898 297.374 352.679 298.808 352.171C300.241 351.663 301.962 352.069 302.678 353.085Z" fill="#85F5FF"/>
<path opacity="0.37" d="M179.421 407.945C180.138 408.936 179.565 410.155 178.167 410.637C176.769 411.145 175.049 410.739 174.368 409.748C173.651 408.758 174.224 407.539 175.622 407.056C176.984 406.548 178.705 406.955 179.421 407.945Z" fill="#85F5FF"/>
<path opacity="0.59" d="M1387.3 836.666C1388.48 838.342 1387.51 840.399 1385.15 841.263C1382.78 842.101 1379.88 841.415 1378.66 839.739C1377.48 838.063 1378.44 836.005 1380.81 835.142C1383.21 834.304 1386.11 834.99 1387.3 836.666Z" fill="#85F5FF"/>
<path opacity="0.59" d="M1174.19 782.288C1175.23 783.787 1174.4 785.59 1172.29 786.327C1170.17 787.063 1167.63 786.479 1166.59 784.981C1165.55 783.482 1166.37 781.679 1168.49 780.942C1170.6 780.206 1173.15 780.815 1174.19 782.288Z" fill="#85F5FF"/>
<path opacity="0.59" d="M1050.61 781.095C1051.54 782.415 1050.79 784.041 1048.92 784.701C1047.06 785.362 1044.77 784.828 1043.83 783.507C1042.9 782.187 1043.65 780.561 1045.52 779.901C1047.38 779.241 1049.68 779.774 1050.61 781.095Z" fill="#85F5FF"/>
<path opacity="0.56" d="M988.782 823.51C989.642 824.729 988.961 826.177 987.241 826.786C985.52 827.396 983.478 826.913 982.617 825.694C981.757 824.475 982.438 823.027 984.159 822.418C985.843 821.808 987.922 822.291 988.782 823.51Z" fill="#85F5FF"/>
<path opacity="0.59" d="M1736.6 447.49C1737.68 448.989 1736.82 450.817 1734.67 451.579C1732.55 452.341 1729.97 451.732 1728.9 450.208C1727.82 448.709 1728.68 446.88 1730.83 446.119C1732.95 445.357 1735.53 445.966 1736.6 447.49Z" fill="#85F5FF"/>
<path opacity="0.59" d="M1397.01 480C1398.05 481.473 1397.23 483.276 1395.15 484.013C1393.07 484.749 1390.52 484.165 1389.48 482.692C1388.44 481.219 1389.27 479.416 1391.35 478.679C1393.43 477.942 1395.97 478.527 1397.01 480Z" fill="#85F5FF"/>
<path opacity="0.59" d="M890.506 601.352C891.402 602.648 890.685 604.222 888.857 604.857C887.029 605.492 884.807 604.984 883.911 603.689C883.015 602.394 883.732 600.819 885.56 600.184C887.352 599.549 889.574 600.057 890.506 601.352Z" fill="#85F5FF"/>
<path opacity="0.56" d="M733.021 702.462C733.881 703.681 733.2 705.129 731.48 705.738C729.759 706.348 727.716 705.865 726.856 704.646C725.996 703.427 726.677 701.979 728.397 701.37C730.118 700.76 732.196 701.243 733.021 702.462Z" fill="#85F5FF"/>
<path opacity="0.52" d="M603.599 830.367C604.423 831.536 603.742 832.983 602.094 833.568C600.445 834.152 598.402 833.669 597.578 832.501C596.754 831.333 597.434 829.885 599.083 829.301C600.768 828.716 602.775 829.199 603.599 830.367Z" fill="#85F5FF"/>
<path opacity="0.59" d="M1486.68 49.2215C1487.69 50.6692 1486.9 52.4217 1484.86 53.1328C1482.81 53.844 1480.34 53.2852 1479.34 51.8375C1478.33 50.3898 1479.12 48.6374 1481.16 47.9262C1483.17 47.1897 1485.65 47.7738 1486.68 49.2215Z" fill="#85F5FF"/>
<path opacity="0.59" d="M1212.79 190.486C1213.76 191.858 1212.97 193.534 1211.03 194.22C1209.1 194.906 1206.73 194.347 1205.76 192.975C1204.8 191.604 1205.58 189.928 1207.52 189.242C1209.45 188.556 1211.82 189.115 1212.79 190.486Z" fill="#85F5FF"/>
<path opacity="0.49" d="M349.451 635.868C350.275 637.011 349.594 638.408 347.981 638.967C346.369 639.551 344.397 639.068 343.609 637.925C342.784 636.782 343.465 635.385 345.078 634.827C346.691 634.268 348.662 634.725 349.451 635.868Z" fill="#85F5FF"/>
<path opacity="0.59" d="M923.587 12.9276C924.447 14.1722 923.766 15.6706 922.01 16.3056C920.254 16.9406 918.139 16.4326 917.243 15.1881C916.347 13.9436 917.064 12.4451 918.82 11.8101C920.577 11.1752 922.727 11.6831 923.587 12.9276Z" fill="#85F5FF"/>
<path opacity="0.56" d="M779.22 164.783C780.08 166.002 779.399 167.45 777.679 168.06C775.958 168.669 773.915 168.187 773.055 166.968C772.195 165.748 772.876 164.301 774.596 163.691C776.281 163.107 778.36 163.59 779.22 164.783Z" fill="#85F5FF"/>
<path opacity="0.55" d="M601.592 277.195C602.452 278.414 601.771 279.862 600.051 280.472C598.331 281.081 596.288 280.599 595.427 279.38C594.567 278.16 595.248 276.713 596.969 276.103C598.689 275.519 600.768 276.002 601.592 277.195Z" fill="#85F5FF"/>
<path opacity="0.53" d="M399.987 352.755C400.811 353.923 400.13 355.371 398.481 355.955C396.833 356.539 394.79 356.056 393.965 354.888C393.141 353.72 393.822 352.272 395.471 351.688C397.119 351.104 399.162 351.561 399.987 352.755Z" fill="#85F5FF"/>
<path opacity="0.48" d="M204.618 397.43C205.406 398.548 204.761 399.919 203.184 400.478C201.607 401.037 199.672 400.58 198.883 399.462C198.095 398.345 198.74 396.973 200.317 396.414C201.894 395.855 203.829 396.313 204.618 397.43Z" fill="#85F5FF"/>
<path opacity="0.46" d="M602.524 80.9694C603.312 82.0869 602.667 83.433 601.126 83.9917C599.585 84.5505 597.649 84.0933 596.861 83.0012C596.072 81.9091 596.718 80.5376 598.259 79.9788C599.836 79.4201 601.735 79.8772 602.524 80.9694Z" fill="#85F5FF"/>
<path opacity="0.51" d="M470.844 130.546C471.669 131.715 470.988 133.112 469.375 133.696C467.726 134.28 465.755 133.797 464.93 132.654C464.106 131.512 464.787 130.089 466.4 129.505C468.049 128.921 470.02 129.378 470.844 130.546Z" fill="#85F5FF"/>
<path opacity="0.56" d="M289.131 150.56C291.031 150.56 292.571 149.468 292.571 148.122C292.571 146.775 291.031 145.684 289.131 145.684C287.23 145.684 285.69 146.775 285.69 148.122C285.69 149.468 287.23 150.56 289.131 150.56Z" fill="#85F5FF"/>
<path opacity="0.59" d="M81.468 130.622C82.3641 131.867 81.6473 133.365 79.891 134C78.1348 134.635 76.0202 134.127 75.1242 132.883C74.2282 131.638 74.945 130.14 76.7012 129.505C78.4574 128.87 80.6079 129.378 81.468 130.622Z" fill="#85F5FF"/>
<path opacity="0.59" d="M813.735 675.895C814.882 677.496 813.95 679.451 811.692 680.264C809.434 681.077 806.674 680.416 805.527 678.816C804.38 677.216 805.312 675.261 807.57 674.448C809.828 673.635 812.588 674.27 813.735 675.895Z" fill="#85F5FF"/>
<path opacity="0.59" d="M583.349 658.422C584.353 659.869 583.564 661.622 581.521 662.333C579.478 663.044 577.005 662.485 576.002 661.038C574.998 659.59 575.786 657.837 577.829 657.126C579.872 656.415 582.345 656.999 583.349 658.422Z" fill="#85F5FF"/>
<path opacity="0.59" d="M381.779 677.369C382.711 678.69 381.959 680.315 380.095 680.975C378.231 681.636 375.937 681.102 375.005 679.782C374.074 678.461 374.826 676.836 376.69 676.175C378.59 675.49 380.847 676.048 381.779 677.369Z" fill="#85F5FF"/>
<path opacity="0.57" d="M194.044 707.364C194.905 708.583 194.224 710.081 192.467 710.691C190.747 711.3 188.633 710.818 187.772 709.573C186.912 708.354 187.593 706.856 189.349 706.246C191.07 705.637 193.148 706.119 194.044 707.364Z" fill="#85F5FF"/>
<path opacity="0.59" d="M1750.8 479.746C1751.98 481.422 1751.01 483.479 1748.65 484.343C1746.28 485.181 1743.38 484.495 1742.16 482.819C1740.98 481.143 1741.94 479.086 1744.31 478.222C1746.71 477.384 1749.61 478.07 1750.8 479.746Z" fill="#85F5FF"/>
<path opacity="0.59" d="M1334.54 435.604C1335.69 437.254 1334.75 439.236 1332.46 440.048C1330.13 440.861 1327.34 440.201 1326.19 438.575C1325.04 436.924 1325.97 434.943 1328.27 434.131C1330.56 433.318 1333.36 433.978 1334.54 435.604Z" fill="#85F5FF"/>
<path opacity="0.59" d="M117.739 427.857C118.635 429.127 117.918 430.651 116.126 431.286C114.334 431.921 112.184 431.413 111.288 430.143C110.392 428.873 111.109 427.349 112.901 426.714C114.693 426.105 116.843 426.613 117.739 427.857Z" fill="#85F5FF"/>
<path opacity="0.59" d="M1634.74 14.223C1635.89 15.8231 1634.96 17.7787 1632.7 18.5915C1630.44 19.4042 1627.68 18.7438 1626.54 17.1438C1625.39 15.5437 1626.32 13.588 1628.58 12.7753C1630.87 11.9879 1633.63 12.6229 1634.74 14.223Z" fill="#85F5FF"/>
<path opacity="0.59" d="M1274.54 83.7379C1275.65 85.2872 1274.76 87.192 1272.57 87.9794C1270.38 88.7667 1267.7 88.1318 1266.59 86.5825C1265.47 85.0332 1266.37 83.1283 1268.56 82.341C1270.78 81.5536 1273.47 82.1886 1274.54 83.7379Z" fill="#85F5FF"/>
<path opacity="0.59" d="M958.64 152.897C959.715 154.395 958.855 156.224 956.704 156.986C954.59 157.748 952.009 157.138 950.934 155.614C949.859 154.116 950.719 152.287 952.869 151.525C954.984 150.789 957.6 151.398 958.64 152.897Z" fill="#85F5FF"/>
<path opacity="0.59" d="M668.579 199.756C669.618 201.23 668.794 203.033 666.715 203.769C664.636 204.506 662.092 203.922 661.052 202.449C660.013 200.976 660.837 199.172 662.916 198.436C664.995 197.674 667.539 198.283 668.579 199.756Z" fill="#85F5FF"/>
<path opacity="0.59" d="M386.116 207.808C387.156 209.255 386.331 211.033 384.252 211.77C382.21 212.506 379.701 211.922 378.661 210.449C377.622 209.001 378.446 207.224 380.525 206.487C382.604 205.776 385.113 206.36 386.116 207.808Z" fill="#85F5FF"/>
<path opacity="0.59" d="M108.528 169.406C109.531 170.853 108.743 172.606 106.7 173.317C104.657 174.028 102.184 173.469 101.181 172.022C100.177 170.574 100.966 168.822 103.008 168.11C105.051 167.399 107.524 167.958 108.528 169.406Z" fill="#85F5FF"/>
<path opacity="0.59" d="M269.024 827.421C270.493 829.504 269.31 832.043 266.372 833.085C263.433 834.126 259.848 833.288 258.379 831.205C256.91 829.123 258.092 826.583 261.031 825.541C263.97 824.475 267.554 825.338 269.024 827.421Z" fill="#85F5FF"/>
<path opacity="0.59" d="M274.866 707.465C276.12 709.243 275.117 711.427 272.572 712.316C270.063 713.205 266.981 712.494 265.726 710.691C264.472 708.913 265.476 706.729 268.02 705.84C270.529 704.951 273.611 705.688 274.866 707.465Z" fill="#85F5FF"/>
<path opacity="0.59" d="M168.275 617.912C169.386 619.486 168.49 621.391 166.268 622.178C164.046 622.966 161.358 622.331 160.246 620.756C159.135 619.182 160.031 617.277 162.254 616.489C164.44 615.702 167.164 616.337 168.275 617.912Z" fill="#85F5FF"/>
<path opacity="0.59" d="M25.6637 543.368C26.6672 544.765 25.8429 546.492 23.8716 547.203C21.9004 547.914 19.4632 547.33 18.4596 545.933C17.4561 544.536 18.2804 542.809 20.2517 542.098C22.2588 541.387 24.6601 541.971 25.6637 543.368Z" fill="#85F5FF"/>
<path opacity="0.59" d="M759.364 540.65C760.726 542.555 759.615 544.867 756.927 545.832C754.239 546.797 750.977 546.009 749.615 544.105C748.253 542.2 749.364 539.888 752.052 538.923C754.776 537.984 758.038 538.746 759.364 540.65Z" fill="#85F5FF"/>
<path opacity="0.59" d="M458.945 426.282C460.199 428.06 459.196 430.219 456.687 431.108C454.178 431.997 451.132 431.286 449.877 429.508C448.623 427.73 449.626 425.571 452.135 424.682C454.644 423.793 457.691 424.53 458.945 426.282Z" fill="#85F5FF"/>
<path opacity="0.59" d="M182.36 326.417C183.543 328.068 182.575 330.074 180.246 330.913C177.916 331.751 175.085 331.065 173.902 329.414C172.719 327.763 173.687 325.757 176.017 324.919C178.346 324.08 181.213 324.741 182.36 326.417Z" fill="#85F5FF"/>
<path opacity="0.59" d="M1623.1 377.137C1624.42 379.017 1623.35 381.277 1620.73 382.217C1618.08 383.157 1614.89 382.395 1613.56 380.541C1612.24 378.661 1613.31 376.401 1615.93 375.461C1618.58 374.521 1621.8 375.258 1623.1 377.137Z" fill="#85F5FF"/>
<path opacity="0.59" d="M874.664 203.236C875.99 205.09 874.915 207.351 872.299 208.265C869.682 209.205 866.493 208.443 865.202 206.589C863.876 204.735 864.951 202.474 867.568 201.56C870.184 200.646 873.374 201.382 874.664 203.236Z" fill="#85F5FF"/>
<path opacity="0.59" d="M569.479 124.375C570.84 126.279 569.729 128.591 567.041 129.556C564.353 130.521 561.092 129.734 559.73 127.829C558.368 125.924 559.479 123.613 562.167 122.647C564.855 121.708 568.117 122.47 569.479 124.375Z" fill="#85F5FF"/>
<path opacity="0.59" d="M299.524 16.8135C300.994 18.8961 299.811 21.4359 296.872 22.4772C293.933 23.5186 290.349 22.6804 288.88 20.5978C287.41 18.5151 288.593 15.9753 291.532 14.934C294.471 13.8673 298.055 14.7308 299.524 16.8135Z" fill="#85F5FF"/>
</svg>
